<?xml version="1.0" encoding="utf-8"?>
<!-- Generator: Adobe Illustrator 22.0.1, SVG Export Plug-In . SVG Version: 6.00 Build 0)  -->
<svg version="1.1" id="Layer_1" xmlns="http://www.w3.org/2000/svg" xmlns:xlink="http://www.w3.org/1999/xlink" x="0px" y="0px"
	 viewBox="0 0 626.3 327.8" style="enable-background:new 0 0 626.3 327.8;" xml:space="preserve">
<style type="text/css">
	.st0{fill:#010101;}
	.st1{fill:none;stroke:#231F20;stroke-width:0.25;stroke-miterlimit:10;}
	.st2{fill:none;stroke:#000000;stroke-width:0.25;stroke-miterlimit:10;}
</style>
<g>
	<g>
		<path class="st0" d="M160,73.4l-6.6,32.3h-4.9l-6.6-32.3h1.4l6.3,30.8h2.7l6.3-30.8H160z"/>
		<path class="st0" d="M179.8,74.9h-3.6l-6.3,30.8h-1.5l6.6-32.3h5.9l6.6,32.3h-1.5L179.8,74.9z M184.3,94.8v1.5h-12.7v-1.5H184.3z"
			/>
		<path class="st0" d="M199.1,90.9v14.7h-1.4V73.4h8.5c1.5,0,2.7,0.2,3.8,0.6c1.1,0.4,2,1.2,2.8,2.5s1.1,3.1,1.1,5.5
			c0,2.3-0.3,4.1-1,5.4c-0.7,1.3-1.5,2.2-2.5,2.7c-1,0.5-2.2,0.8-3.5,0.8H199.1z M199.1,89.5h8.6c1.5,0,2.7-0.6,3.5-1.8
			c0.9-1.2,1.3-3.1,1.3-5.7c0-2.5-0.5-4.4-1.4-5.5c-0.9-1.1-2.2-1.6-3.7-1.6h-8.4V89.5z M206.7,90.3h1.5l5.6,15.3h-1.5L206.7,90.3z"
			/>
		<path class="st0" d="M233,74.9v29.3h7.1v1.5h-15.6v-1.5h7.1V74.9h-7.1v-1.5h15.6v1.5H233z"/>
		<path class="st0" d="M261.4,74.9h-3.6l-6.3,30.8H250l6.6-32.3h5.9l6.6,32.3h-1.5L261.4,74.9z M265.9,94.8v1.5h-12.7v-1.5H265.9z"
			/>
		<path class="st0" d="M294.5,91.2c0.8,1.3,1.2,3,1.2,5.3c0,3.1-0.6,5.5-1.7,7c-1.1,1.5-2.9,2.3-5.4,2.3h-9.4V73.4h7.7
			c1.5,0,2.7,0.2,3.7,0.5c1,0.3,1.9,1.1,2.6,2.2c0.7,1.2,1,2.9,1,5.2c0,2-0.3,3.6-0.8,4.9c-0.5,1.2-1.2,2.1-1.9,2.5
			C292.7,89.1,293.7,89.9,294.5,91.2z M280.6,88.3h8.2c1.3,0,2.2-0.6,2.9-1.9c0.7-1.2,1-3,1-5.1c0-2.4-0.4-4.1-1.3-5
			c-0.9-0.9-2-1.4-3.4-1.4h-7.4V88.3z M292.9,102.4c0.9-1.2,1.4-3.2,1.4-5.9c0-2.1-0.5-3.8-1.4-4.9c-0.9-1.2-2-1.8-3.3-1.8h-9v14.4
			h8.2C290.6,104.2,292,103.6,292.9,102.4z"/>
		<path class="st0" d="M322.6,104.2v1.5h-15.7V73.4h1.4v30.8H322.6z"/>
		<path class="st0" d="M335.1,74.9v14.2h12v1.5h-12v13.6h14.3v1.5h-15.7V73.4h15.7v1.5H335.1z"/>
		<path class="st0" d="M391.1,74.9v14.2h12.6v1.5h-12.6v15.1h-1.4V73.4h15.7v1.5H391.1z"/>
		<path class="st0" d="M418.1,105c-1.2-0.8-2.2-2.1-2.9-4c-0.7-1.9-1-4.6-1-7.9V73.4h1.4v20.5c0,2.7,0.3,4.8,0.8,6.4
			c0.5,1.6,1.3,2.7,2.3,3.4c1,0.7,2.4,1,4.1,1c1.7,0,3.1-0.3,4.1-1c1-0.7,1.8-1.8,2.3-3.4c0.5-1.6,0.8-3.7,0.8-6.4V73.4h1.4v19.6
			c0,3.4-0.3,6-1,7.9s-1.6,3.3-2.8,4c-1.2,0.8-2.8,1.2-4.7,1.2C420.9,106.2,419.3,105.8,418.1,105z"/>
		<path class="st0" d="M459.3,74.9h-8.8v30.8h-1.4V74.9h-8.8v-1.5h18.9V74.9z"/>
		<path class="st0" d="M472.4,105c-1.2-0.8-2.2-2.1-2.9-4c-0.7-1.9-1-4.6-1-7.9V73.4h1.4v20.5c0,2.7,0.3,4.8,0.8,6.4
			c0.5,1.6,1.3,2.7,2.3,3.4s2.4,1,4.1,1c1.7,0,3.1-0.3,4.1-1s1.8-1.8,2.3-3.4c0.5-1.6,0.8-3.7,0.8-6.4V73.4h1.4v19.6
			c0,3.4-0.3,6-1,7.9s-1.6,3.3-2.8,4c-1.2,0.8-2.8,1.2-4.7,1.2C475.2,106.2,473.7,105.8,472.4,105z"/>
		<path class="st0" d="M498.2,90.9v14.7h-1.4V73.4h8.5c1.5,0,2.7,0.2,3.8,0.6c1.1,0.4,2,1.2,2.8,2.5s1.1,3.1,1.1,5.5
			c0,2.3-0.3,4.1-1,5.4c-0.7,1.3-1.5,2.2-2.5,2.7s-2.2,0.8-3.5,0.8H498.2z M498.2,89.5h8.6c1.5,0,2.7-0.6,3.5-1.8
			c0.9-1.2,1.3-3.1,1.3-5.7c0-2.5-0.5-4.4-1.4-5.5c-0.9-1.1-2.2-1.6-3.7-1.6h-8.4V89.5z M505.7,90.3h1.5l5.6,15.3h-1.5L505.7,90.3z"
			/>
		<path class="st0" d="M525.4,74.9v14.2h12v1.5h-12v13.6h14.3v1.5h-15.7V73.4h15.7v1.5H525.4z"/>
		<path class="st0" d="M559.7,88.1c2.1,1.1,3.8,2.2,5,3.1s2.1,1.9,2.7,3c0.6,1.1,0.9,2.3,0.9,3.7c0,1.7-0.4,3.2-1.1,4.4
			s-1.8,2.2-3.2,2.9c-1.4,0.7-3.1,1-5.1,1c-2.5,0-4.5-0.4-6.1-1.3c-1.6-0.9-2.8-2.2-3.8-4l1.5-0.8c0.8,1.6,1.8,2.8,3.2,3.5
			c1.3,0.7,3.1,1.1,5.2,1.1c2.6,0,4.5-0.6,5.9-1.9c1.4-1.2,2.1-2.8,2.1-4.8c0-1.2-0.3-2.3-0.9-3.3c-0.6-1-1.5-1.9-2.7-2.7
			c-1.2-0.9-2.8-1.8-4.8-2.8l-0.5-0.3c-1.7-0.9-3.1-1.7-4.2-2.5c-1.1-0.8-1.9-1.7-2.4-2.7s-0.8-2.1-0.8-3.3c0-1.5,0.3-2.8,1-3.9
			c0.7-1.1,1.6-1.9,2.9-2.5c1.2-0.6,2.7-0.9,4.4-0.9c2.1,0,3.9,0.4,5.4,1.3c1.4,0.9,2.5,2.2,3.3,3.8l-1.4,0.8
			c-0.7-1.5-1.6-2.7-2.7-3.4c-1.1-0.7-2.7-1.1-4.6-1.1c-2,0-3.7,0.5-4.9,1.5s-1.9,2.3-1.9,4.1c0,1.5,0.5,2.8,1.5,3.9
			c1,1.1,2.6,2.2,4.9,3.3L559.7,88.1z"/>
	</g>
</g>
<g>
	<g>
		<path class="st0" d="M146.1,251.7l-6.5-34.1h8.6l4.6,27.4h1.5l4.6-27.4h8.5l-6.5,34.1H146.1z"/>
		<path class="st0" d="M171.9,251.7l7.3-34.1h14.4l7.3,34.1h-8.6l-5.2-27.8h-1.4l-5.2,27.8H171.9z M179.1,244.2v-6.3h14.6v6.3H179.1
			z"/>
		<path class="st0" d="M206.9,251.7v-34.1h20.7l4,4.4v11.1l-3.1,3.5l3.1,3.4v11.8h-8.8v-10.9l-1.2-1.4h-5.9v12.3H206.9z
			 M215.7,233.4h6l1.2-1.4v-7.1l-1-1.1h-6.1V233.4z"/>
		<path class="st0" d="M239.1,251.7v-34.1h8.8v34.1H239.1z"/>
		<path class="st0" d="M254,251.7l7.3-34.1h14.4l7.3,34.1h-8.6l-5.2-27.8h-1.4l-5.2,27.8H254z M261.1,244.2v-6.3h14.6v6.3H261.1z"/>
		<path class="st0" d="M288.9,251.7v-34.1h21l4,4.4v8.9l-3.1,3.4l3.1,3.5v9.5l-4,4.4H288.9z M297.7,231.4h6.3l1.2-1.3v-5.7l-1-1.1
			h-6.5V231.4z M297.7,246h6.5l1-1.1v-6.6l-1.2-1.4h-6.3V246z"/>
		<path class="st0" d="M321.5,251.7v-34.1h8.8v27.2h11.9v7H321.5z"/>
		<path class="st0" d="M348,251.7v-34.1h20.6v6.2h-11.9v7.2h10.6v6.2h-10.6v8.3H369v6.2H348z"/>
		<path class="st0" d="M390.4,251.7v-34.1h20.4v6.4h-11.7v8.3h10.3v6.5h-10.3v13H390.4z"/>
		<path class="st0" d="M421.1,251.7l-4-4.4v-29.7h8.8v26.9l1,1.1h5.7l1-1.1v-26.9h8.8v29.7l-4,4.4H421.1z"/>
		<path class="st0" d="M455.9,251.7v-27.3h-7.7v-6.8h24.2v6.8h-7.7v27.3H455.9z"/>
		<path class="st0" d="M482.3,251.7l-4-4.4v-29.7h8.8v26.9l1,1.1h5.7l1-1.1v-26.9h8.8v29.7l-4,4.4H482.3z"/>
		<path class="st0" d="M511.1,251.7v-34.1h20.7l4,4.4v11.1l-3.1,3.5l3.1,3.4v11.8H527v-10.9l-1.2-1.4h-5.9v12.3H511.1z M519.9,233.4
			h6l1.2-1.4v-7.1l-1-1.1h-6.1V233.4z"/>
		<path class="st0" d="M543.4,251.7v-34.1H564v6.2h-11.9v7.2h10.6v6.2h-10.6v8.3h12.2v6.2H543.4z"/>
		<path class="st0" d="M574.4,251.7l-4-4.4v-5.2h8.3v2.6l1,1.1h6.4l1-1.1v-5.4l-1-1.2h-11.2l-4-4.4V222l4-4.4h16.2l4,4.4v4.8h-8.3
			v-2.2l-0.9-1.1h-5.5l-1,1.1v4.8l1,1.2h11.2l4,4.4v12.4l-4,4.4H574.4z"/>
	</g>
</g>
<polygon class="st0" points="157.8,0.5 150.8,33.8 147.3,33.8 140.3,0.5 139.8,0.5 146.9,34.2 151.2,34.2 158.3,0.5 "/>
<path class="st0" d="M172.8,0.9h3.6l4.5,21.5h-12.6L172.8,0.9z M172.3,0.5l-7,33.7h0.5l2.4-11.4h12.7l2.4,11.4h0.5l-7.1-33.7H172.3z
	"/>
<path class="st0" d="M193.2,0.9h10.9l3.3,3.6v9.9l-3.4,3.8h-10.8V0.9z M192.7,0.5v33.7h0.5V18.7H204l3.4,3.8v11.7h0.5V22.4l-3.5-3.9
	l3.5-3.9V4.3l-3.5-3.9H192.7z"/>
<rect x="218.7" y="0.5" class="st0" width="0.5" height="33.7"/>
<path class="st0" d="M235.5,0.9h3.6l4.5,21.5H231L235.5,0.9z M235.1,0.5l-7,33.7h0.5l2.4-11.4h12.7l2.4,11.4h0.5l-7.1-33.7H235.1z"
	/>
<path class="st0" d="M256,17.1h10.8l3.4,3.9v9.2l-3.2,3.6h-11V17.1z M256,0.9h11l3.2,3.6v8.3l-3.4,3.8H256V0.9z M255.5,0.5v33.7
	h11.7l3.5-3.9v-9.5l-3.5-3.9l3.5-3.9V4.3l-3.5-3.9H255.5z"/>
<polygon class="st0" points="281.5,0.5 281.5,34.2 295.1,34.2 295.1,33.8 282,33.8 282,0.5 "/>
<polygon class="st0" points="302.3,0.5 302.3,34.2 316.5,34.2 316.5,33.8 302.8,33.8 302.8,16.9 315.2,16.9 315.2,16.4 302.8,16.4 
	302.8,0.9 316.3,0.9 316.3,0.5 "/>
<polygon class="st0" points="338.5,0.5 338.5,34.2 339,34.2 339,17.3 350.3,17.3 350.3,16.9 339,16.9 339,0.9 352.1,0.9 352.1,0.5 
	"/>
<polygon class="st0" points="376.7,0.5 376.7,30.2 373.4,33.8 363.8,33.8 360.6,30.2 360.6,0.5 360.1,0.5 360.1,30.3 363.6,34.2 
	373.7,34.2 377.2,30.3 377.2,0.5 "/>
<polygon class="st0" points="384.4,0.5 384.4,0.9 393.8,0.9 393.8,34.2 394.3,34.2 394.3,0.9 403.6,0.9 403.6,0.5 "/>
<polygon class="st0" points="427.4,0.5 427.4,30.2 424.2,33.8 414.5,33.8 411.3,30.2 411.3,0.5 410.8,0.5 410.8,30.3 414.3,34.2 
	424.4,34.2 427.9,30.3 427.9,0.5 "/>
<path class="st0" d="M439.2,0.9h10.9l3.3,3.6v9.9l-3.4,3.8h-10.8V0.9z M438.7,0.5v33.7h0.5V18.7H450l3.4,3.8v11.7h0.5V22.4l-3.5-3.9
	l3.5-3.9V4.3l-3.5-3.9H438.7z"/>
<polygon class="st0" points="464.7,0.5 464.7,34.2 478.9,34.2 478.9,33.8 465.2,33.8 465.2,16.9 477.6,16.9 477.6,16.4 465.2,16.4 
	465.2,0.9 478.7,0.9 478.7,0.5 "/>
<polygon class="st0" points="490.8,0.5 487.3,4.3 487.3,13.6 490.6,17.2 500.1,17.2 503.1,20.6 503.1,30.1 499.9,33.8 490.7,33.8 
	487.4,30.1 487.4,26.5 486.9,26.5 486.9,30.3 490.4,34.2 500.1,34.2 503.6,30.3 503.6,20.4 500.3,16.7 490.8,16.7 487.8,13.4 
	487.8,4.6 491.1,0.9 499.5,0.9 502.8,4.6 502.8,7.8 503.3,7.8 503.3,4.3 499.8,0.5 "/>
<polygon class="st0" points="158.4,146.9 152.9,175.9 150.8,175.9 145.4,146.9 139.8,146.9 146.6,180.7 157.1,180.7 163.9,146.9 "/>
<path class="st0" d="M174.7,167.3h13.8v4.6h-13.8V167.3z M169.4,180.7l7.1-33.7h10.3l7.1,33.7h-5.5l-5.8-29.2h-2l-5.8,29.2H169.4z"
	/>
<path class="st0" d="M206.5,162.9h7.8l1.8-2V153l-1.4-1.6h-8.2V162.9z M201,180.7v-33.7h16.9l3.8,4.2v10.8l-3.1,3.4l3.1,3.4v11.9
	h-5.6v-11.1l-1.9-2.1h-7.7v13.2H201z"/>
<rect x="230.4" y="146.9" class="st0" width="5.6" height="33.7"/>
<path class="st0" d="M248.5,167.3h13.8v4.6h-13.8V167.3z M243.1,180.7l7.1-33.7h10.3l7.1,33.7h-5.5l-5.8-29.2h-2l-5.8,29.2H243.1z"
	/>
<path class="st0" d="M280.3,176.4h8.5l1.4-1.5v-7.3l-1.8-2h-8V176.4z M280.3,161.2h8l1.8-2v-6.4l-1.4-1.6h-8.5V161.2z M274.7,180.7
	v-33.7h17.2l3.8,4.2v8.9l-3.1,3.4l3.1,3.4v9.7l-3.8,4.2H274.7z"/>
<polygon class="st0" points="304.4,180.7 304.4,146.9 310,146.9 310,175.9 322.3,175.9 322.3,180.7 "/>
<polygon class="st0" points="328.6,180.7 328.6,146.9 346.3,146.9 346.3,151.4 334.2,151.4 334.2,160.9 345.1,160.9 345.1,165.5 
	334.2,165.5 334.2,176.2 346.7,176.2 346.7,180.7 "/>
<polygon class="st0" points="368.4,180.7 368.4,146.9 385.9,146.9 385.9,151.5 373.9,151.5 373.9,162 384.5,162 384.5,166.6 
	373.9,166.6 373.9,180.7 "/>
<polygon class="st0" points="396.5,180.7 392.7,176.5 392.7,146.9 398.3,146.9 398.3,174.6 399.7,176.1 407.2,176.1 408.6,174.6 
	408.6,146.9 414.2,146.9 414.2,176.5 410.4,180.7 "/>
<polygon class="st0" points="428.8,180.7 428.8,151.7 420.6,151.7 420.6,146.9 442.6,146.9 442.6,151.7 434.4,151.7 434.4,180.7 "/>
<polygon class="st0" points="452.8,180.7 449,176.5 449,146.9 454.5,146.9 454.5,174.6 455.9,176.1 463.5,176.1 464.9,174.6 
	464.9,146.9 470.5,146.9 470.5,176.5 466.6,180.7 "/>
<path class="st0" d="M484.8,162.9h7.8l1.8-2V153l-1.4-1.6h-8.2V162.9z M479.2,180.7v-33.7h16.9l3.8,4.2v10.8l-3.1,3.4l3.1,3.4v11.9
	h-5.6v-11.1l-1.9-2.1h-7.7v13.2H479.2z"/>
<polygon class="st0" points="508.6,180.7 508.6,146.9 526.3,146.9 526.3,151.4 514.2,151.4 514.2,160.9 525.1,160.9 525.1,165.5 
	514.2,165.5 514.2,176.2 526.7,176.2 526.7,180.7 "/>
<polygon class="st0" points="537.5,180.7 533.6,176.5 533.6,171.4 539,171.4 539,174.8 540.4,176.3 548.5,176.3 549.8,174.8 
	549.8,167.6 548.4,166.1 537.9,166.1 534.1,162 534.1,151.1 538,146.9 551.1,146.9 554.9,151.1 554.9,155.7 549.5,155.7 
	549.5,152.8 548.2,151.4 540.9,151.4 539.7,152.8 539.7,159.4 541.1,160.9 551.6,160.9 555.3,165 555.3,176.5 551.5,180.7 "/>
<polygon class="st0" points="159.6,294.1 155.8,319.2 155,319.2 151.3,294.1 139.8,294.1 146,327.8 164.6,327.8 170.9,294.1 "/>
<path class="st0" d="M190.3,302.1h0.7l2.1,11.9h-5L190.3,302.1z M181.6,294.1l-7.3,33.7h11.3l1.1-6.1h7.8l1.1,6.1h11.5l-7.3-33.7
	H181.6z"/>
<path class="st0" d="M223.8,301.6h3.9l0.6,0.7v6.3l-0.6,0.7h-3.9V301.6z M211.9,294.1v33.7h11.9v-11h3.9l0.6,0.6v10.4h11.8v-11.3
	l-3.1-3.4l3.1-3.4v-11.1l-4.1-4.6H211.9z"/>
<rect x="246.3" y="294.1" class="st0" width="11.9" height="33.7"/>
<path class="st0" d="M278.8,302.1h0.7l2.1,11.9h-5L278.8,302.1z M270.2,294.1l-7.3,33.7h11.3l1.1-6.1h7.8l1.1,6.1h11.5l-7.3-33.7
	H270.2z"/>
<path class="st0" d="M312.3,313.8h4.3l0.6,0.7v5.8l-0.6,0.7h-4.3V313.8z M312.3,300.9h4.3l0.6,0.7v4.9l-0.6,0.7h-4.3V300.9z
	 M300.4,294.1v33.7h24.5l4.1-4.6v-9.2l-3.1-3.4l3.1-3.4v-8.6l-4.1-4.6H300.4z"/>
<polygon class="st0" points="335.2,294.1 335.2,327.8 358.2,327.8 358.2,318.9 347.1,318.9 347.1,294.1 "/>
<polygon class="st0" points="363.4,294.1 363.4,327.8 386.8,327.8 386.8,320.1 375.2,320.1 375.2,314.4 385.4,314.4 385.4,306.6 
	375.2,306.6 375.2,301.8 386.5,301.8 386.5,294.1 "/>
<polygon class="st0" points="407.6,294.1 407.6,327.8 419.4,327.8 419.4,316.3 429.1,316.3 429.1,308.1 419.4,308.1 419.4,302.1 
	430.5,302.1 430.5,294.1 "/>
<polygon class="st0" points="452.5,294.1 452.5,319.6 451.9,320.3 448.2,320.3 447.6,319.6 447.6,294.1 435.7,294.1 435.7,323.3 
	439.9,327.8 460.2,327.8 464.3,323.3 464.3,294.1 "/>
<polygon class="st0" points="469.5,294.1 469.5,302.8 476.5,302.8 476.5,327.8 488.3,327.8 488.3,302.8 495.4,302.8 495.4,294.1 "/>
<polygon class="st0" points="517.3,294.1 517.3,319.6 516.7,320.3 513,320.3 512.4,319.6 512.4,294.1 500.5,294.1 500.5,323.3 
	504.7,327.8 525,327.8 529.1,323.3 529.1,294.1 "/>
<path class="st0" d="M547.2,301.6h3.9l0.6,0.7v6.3l-0.6,0.7h-3.9V301.6z M535.3,294.1v33.7h11.9v-11h3.9l0.6,0.6v10.4h11.8v-11.3
	l-3.1-3.4l3.1-3.4v-11.1l-4.1-4.6H535.3z"/>
<polygon class="st0" points="569.7,294.1 569.7,327.8 593.1,327.8 593.1,320.1 581.5,320.1 581.5,314.4 591.6,314.4 591.6,306.6 
	581.5,306.6 581.5,301.8 592.8,301.8 592.8,294.1 "/>
<polygon class="st0" points="602.8,294.1 598.6,298.6 598.6,311.1 602.8,315.7 614.2,315.7 614.9,316.3 614.9,319.9 614.2,320.6 
	609.8,320.6 609.2,319.9 609.2,318.1 598.2,318.1 598.2,323.3 602.3,327.8 622.1,327.8 626.3,323.3 626.3,310.3 622.1,305.7 
	610.6,305.7 610,305.1 610,302 610.6,301.3 614.2,301.3 614.8,302 614.8,303.5 625.8,303.5 625.8,298.6 621.7,294.1 "/>
<polyline class="st1" points="102.1,0.5 90.9,0.5 90.9,327.7 102.1,327.7 "/>
<g>
	<path class="st0" d="M0.3,324.9v2.8H0V320h2.3c0.5,0,0.9,0,1.2,0.1c0.3,0.1,0.6,0.3,0.9,0.7c0.3,0.4,0.4,0.9,0.4,1.6
		c0,0.7-0.1,1.3-0.4,1.6c-0.3,0.4-0.6,0.6-0.9,0.7s-0.8,0.2-1.2,0.2H0.3z M0.3,324.6h2.1c0.4,0,0.7,0,0.9-0.1s0.5-0.3,0.7-0.6
		c0.2-0.3,0.3-0.8,0.3-1.4c0-0.6-0.1-1.1-0.3-1.4c-0.2-0.3-0.4-0.5-0.7-0.6c-0.3-0.1-0.6-0.1-1-0.1H0.3V324.6z"/>
	<path class="st0" d="M8.1,327.1c-0.4-0.5-0.6-1.2-0.6-2.2s0.2-1.7,0.6-2.2c0.4-0.5,1-0.7,1.7-0.7s1.3,0.2,1.7,0.7
		c0.4,0.5,0.6,1.2,0.6,2.2s-0.2,1.7-0.6,2.2c-0.4,0.5-1,0.7-1.7,0.7C9.1,327.8,8.6,327.5,8.1,327.1z M10.9,327.2
		c0.3-0.2,0.5-0.4,0.7-0.8c0.2-0.4,0.3-0.9,0.3-1.5c0-0.6-0.1-1.1-0.3-1.4c-0.2-0.4-0.4-0.6-0.7-0.8c-0.3-0.2-0.6-0.3-1-0.3
		c-0.4,0-0.7,0.1-1,0.3c-0.3,0.2-0.5,0.4-0.7,0.8c-0.2,0.4-0.3,0.9-0.3,1.4c0,0.6,0.1,1.1,0.2,1.5c0.2,0.4,0.4,0.6,0.7,0.8
		c0.3,0.2,0.6,0.2,1,0.2S10.6,327.3,10.9,327.2z"/>
	<path class="st0" d="M19.6,327.3v0.4H17v-8.4h-1.9v-0.4h2.3v8.4H19.6z"/>
	<path class="st0" d="M27.5,324.6c0-0.4-0.1-0.7-0.2-1c-0.2-0.3-0.4-0.6-0.7-0.8c-0.3-0.2-0.7-0.3-1.1-0.3c-0.4,0-0.8,0.1-1.1,0.3
		c-0.3,0.2-0.6,0.5-0.8,0.8s-0.3,0.8-0.3,1.4c0,0.5,0.1,1,0.3,1.3c0.2,0.4,0.4,0.7,0.7,0.9c0.3,0.2,0.7,0.3,1.2,0.3
		c0.5,0,0.9-0.1,1.2-0.3s0.6-0.4,0.7-0.7l0,0l0.3,0.2c-0.1,0.2-0.3,0.3-0.5,0.5c-0.2,0.2-0.5,0.3-0.8,0.4c-0.3,0.1-0.7,0.2-1.1,0.2
		c-0.5,0-0.9-0.1-1.3-0.3c-0.4-0.2-0.7-0.5-0.9-1s-0.3-1-0.3-1.6c0-0.6,0.1-1.2,0.4-1.6c0.2-0.4,0.5-0.8,0.9-1
		c0.4-0.2,0.8-0.3,1.3-0.3c0.5,0,0.9,0.1,1.3,0.4c0.4,0.3,0.6,0.6,0.8,1.1c0.2,0.4,0.3,0.9,0.2,1.4h-4.7v-0.4H27.5z"/>
	<path class="st0" d="M43,323.9c-0.4,0.6-1,1.2-1.6,1.8c-0.6,0.6-1.3,1.1-2,1.6h4.3v0.4h-4.9v-0.4c0.9-0.6,1.7-1.2,2.3-1.8
		s1.2-1.1,1.6-1.7c0.4-0.6,0.6-1.2,0.6-1.7c0-0.3-0.1-0.6-0.2-0.9c-0.2-0.3-0.4-0.5-0.7-0.7s-0.7-0.2-1.1-0.2c-0.3,0-0.6,0-0.9,0.1
		c-0.3,0.1-0.5,0.2-0.8,0.3c-0.2,0.1-0.4,0.3-0.4,0.4l-0.3-0.2c0.1-0.2,0.4-0.4,0.6-0.5c0.3-0.2,0.5-0.3,0.9-0.4
		c0.3-0.1,0.6-0.1,1-0.1c0.5,0,0.9,0.1,1.3,0.3c0.4,0.2,0.6,0.5,0.8,0.8c0.2,0.3,0.3,0.7,0.3,1.1C43.6,322.7,43.4,323.3,43,323.9z"
		/>
	<path class="st0" d="M59.1,327.3v0.4H55v-0.4h2v-7l-2,1.1l-0.1-0.3l2.1-1.1h0.3v7.3H59.1z"/>
	<path class="st0" d="M63.6,327.4c-0.4-0.2-0.6-0.7-0.9-1.3c-0.2-0.6-0.3-1.4-0.3-2.3s0.1-1.7,0.3-2.3s0.5-1,0.9-1.3
		c0.4-0.2,0.8-0.4,1.2-0.4c0.4,0,0.8,0.1,1.1,0.4s0.7,0.7,0.9,1.3c0.2,0.6,0.4,1.4,0.4,2.3s-0.1,1.7-0.4,2.3c-0.2,0.6-0.5,1-0.9,1.3
		s-0.7,0.4-1.1,0.4C64.3,327.8,63.9,327.7,63.6,327.4z M65.8,327c0.3-0.3,0.6-0.7,0.7-1.2s0.3-1.2,0.3-2s-0.1-1.5-0.3-2
		c-0.2-0.5-0.4-0.9-0.7-1.2c-0.3-0.3-0.7-0.4-1-0.4c-0.4,0-0.7,0.1-1.1,0.4c-0.3,0.3-0.5,0.7-0.7,1.2c-0.2,0.5-0.3,1.2-0.3,2
		s0.1,1.5,0.3,2c0.2,0.5,0.4,0.9,0.7,1.2c0.3,0.3,0.7,0.4,1.1,0.4C65.1,327.4,65.5,327.3,65.8,327z M64.5,324.4
		c-0.1-0.1-0.1-0.3-0.1-0.5s0-0.4,0.1-0.5c0.1-0.1,0.2-0.2,0.3-0.2c0.1,0,0.2,0.1,0.3,0.2c0.1,0.1,0.1,0.3,0.1,0.5s0,0.4-0.1,0.5
		c-0.1,0.1-0.2,0.2-0.3,0.2C64.6,324.5,64.5,324.5,64.5,324.4z"/>
	<path class="st0" d="M71.4,327.4c-0.4-0.2-0.6-0.7-0.9-1.3c-0.2-0.6-0.3-1.4-0.3-2.3s0.1-1.7,0.3-2.3s0.5-1,0.9-1.3
		c0.4-0.2,0.8-0.4,1.2-0.4c0.4,0,0.8,0.1,1.1,0.4s0.7,0.7,0.9,1.3c0.2,0.6,0.4,1.4,0.4,2.3s-0.1,1.7-0.4,2.3c-0.2,0.6-0.5,1-0.9,1.3
		s-0.7,0.4-1.1,0.4C72.2,327.8,71.8,327.7,71.4,327.4z M73.6,327c0.3-0.3,0.6-0.7,0.7-1.2s0.3-1.2,0.3-2s-0.1-1.5-0.3-2
		c-0.2-0.5-0.4-0.9-0.7-1.2c-0.3-0.3-0.7-0.4-1-0.4c-0.4,0-0.7,0.1-1.1,0.4c-0.3,0.3-0.5,0.7-0.7,1.2c-0.2,0.5-0.3,1.2-0.3,2
		s0.1,1.5,0.3,2c0.2,0.5,0.4,0.9,0.7,1.2c0.3,0.3,0.7,0.4,1.1,0.4C73,327.4,73.3,327.3,73.6,327z M72.3,324.4
		c-0.1-0.1-0.1-0.3-0.1-0.5s0-0.4,0.1-0.5c0.1-0.1,0.2-0.2,0.3-0.2c0.1,0,0.2,0.1,0.3,0.2c0.1,0.1,0.1,0.3,0.1,0.5s0,0.4-0.1,0.5
		c-0.1,0.1-0.2,0.2-0.3,0.2C72.5,324.5,72.4,324.5,72.3,324.4z"/>
	<path class="st0" d="M77.9,322.6c-0.2-0.2-0.4-0.6-0.4-1.1s0.1-0.9,0.4-1.1c0.2-0.2,0.5-0.3,0.9-0.3c0.4,0,0.7,0.1,0.9,0.3
		c0.2,0.2,0.4,0.6,0.4,1.1s-0.1,0.9-0.4,1.1c-0.2,0.2-0.5,0.4-0.9,0.4C78.4,323,78.1,322.9,77.9,322.6z M78.1,327.7h-0.4l5.1-7.7
		h0.4L78.1,327.7z M79.4,322.4c0.2-0.2,0.2-0.5,0.2-0.8c0-0.4-0.1-0.7-0.2-0.8c-0.2-0.2-0.4-0.3-0.7-0.3s-0.5,0.1-0.7,0.3
		c-0.2,0.2-0.2,0.4-0.2,0.8c0,0.4,0.1,0.7,0.2,0.8c0.2,0.2,0.4,0.3,0.7,0.3S79.3,322.5,79.4,322.4z M81.3,327.2
		c-0.2-0.2-0.4-0.6-0.4-1.1s0.1-0.9,0.4-1.1c0.2-0.2,0.5-0.3,0.9-0.3c0.4,0,0.7,0.1,0.9,0.3c0.2,0.2,0.4,0.6,0.4,1.1
		s-0.1,0.9-0.4,1.1c-0.2,0.2-0.5,0.4-0.9,0.4C81.9,327.6,81.6,327.5,81.3,327.2z M82.9,327c0.2-0.2,0.2-0.5,0.2-0.8
		c0-0.4-0.1-0.7-0.2-0.8c-0.2-0.2-0.4-0.3-0.6-0.3c-0.3,0-0.5,0.1-0.7,0.3c-0.2,0.2-0.2,0.4-0.2,0.8c0,0.4,0.1,0.7,0.2,0.8
		c0.2,0.2,0.4,0.3,0.7,0.3C82.5,327.2,82.7,327.2,82.9,327z"/>
</g>
<g>
	<path class="st0" d="M0.3,6v2.8H0V1.1h2.3c0.5,0,0.9,0,1.2,0.1c0.3,0.1,0.6,0.3,0.9,0.7c0.3,0.4,0.4,0.9,0.4,1.6
		c0,0.7-0.1,1.3-0.4,1.6C4.1,5.5,3.8,5.8,3.5,5.9S2.7,6,2.3,6H0.3z M0.3,5.7h2.1c0.4,0,0.7,0,0.9-0.1s0.5-0.3,0.7-0.6
		c0.2-0.3,0.3-0.8,0.3-1.4c0-0.6-0.1-1.1-0.3-1.4C3.9,1.8,3.7,1.6,3.4,1.6c-0.3-0.1-0.6-0.1-1-0.1H0.3V5.7z"/>
	<path class="st0" d="M8.1,8.2C7.7,7.7,7.5,7,7.5,6s0.2-1.7,0.6-2.2c0.4-0.5,1-0.7,1.7-0.7s1.3,0.2,1.7,0.7C12,4.3,12.2,5.1,12.2,6
		S12,7.7,11.6,8.2c-0.4,0.5-1,0.7-1.7,0.7C9.1,8.9,8.6,8.7,8.1,8.2z M10.9,8.3c0.3-0.2,0.5-0.4,0.7-0.8c0.2-0.4,0.3-0.9,0.3-1.5
		c0-0.6-0.1-1.1-0.3-1.4c-0.2-0.4-0.4-0.6-0.7-0.8c-0.3-0.2-0.6-0.3-1-0.3c-0.4,0-0.7,0.1-1,0.3C8.5,4,8.3,4.2,8.1,4.6
		C8,5,7.9,5.4,7.9,6c0,0.6,0.1,1.1,0.2,1.5c0.2,0.4,0.4,0.6,0.7,0.8c0.3,0.2,0.6,0.2,1,0.2S10.6,8.5,10.9,8.3z"/>
	<path class="st0" d="M19.6,8.4v0.4H17V0.4h-1.9V0h2.3v8.4H19.6z"/>
	<path class="st0" d="M27.5,5.7c0-0.4-0.1-0.7-0.2-1c-0.2-0.3-0.4-0.6-0.7-0.8c-0.3-0.2-0.7-0.3-1.1-0.3c-0.4,0-0.8,0.1-1.1,0.3
		c-0.3,0.2-0.6,0.5-0.8,0.8S23.4,5.5,23.4,6c0,0.5,0.1,1,0.3,1.3c0.2,0.4,0.4,0.7,0.7,0.9c0.3,0.2,0.7,0.3,1.2,0.3
		c0.5,0,0.9-0.1,1.2-0.3s0.6-0.4,0.7-0.7l0,0l0.3,0.2c-0.1,0.2-0.3,0.3-0.5,0.5c-0.2,0.2-0.5,0.3-0.8,0.4c-0.3,0.1-0.7,0.2-1.1,0.2
		c-0.5,0-0.9-0.1-1.3-0.3c-0.4-0.2-0.7-0.5-0.9-1S23,6.7,23,6c0-0.6,0.1-1.2,0.4-1.6c0.2-0.4,0.5-0.8,0.9-1c0.4-0.2,0.8-0.3,1.3-0.3
		c0.5,0,0.9,0.1,1.3,0.4c0.4,0.3,0.6,0.6,0.8,1.1c0.2,0.4,0.3,0.9,0.2,1.4h-4.7V5.7H27.5z"/>
	<path class="st0" d="M43.4,8.4v0.4h-4.2V8.4h2v-7l-2,1.1l-0.1-0.3l2.1-1.1h0.3v7.3H43.4z"/>
	<path class="st0" d="M55.7,8.5c-0.4-0.2-0.6-0.7-0.9-1.3c-0.2-0.6-0.3-1.4-0.3-2.3s0.1-1.7,0.3-2.3s0.5-1,0.9-1.3
		C56.1,1.2,56.5,1,56.9,1c0.4,0,0.8,0.1,1.1,0.4s0.7,0.7,0.9,1.3C59.2,3.3,59.3,4,59.3,5S59.2,6.7,59,7.3c-0.2,0.6-0.5,1-0.9,1.3
		s-0.7,0.4-1.1,0.4C56.5,8.9,56.1,8.8,55.7,8.5z M58,8.2c0.3-0.3,0.6-0.7,0.7-1.2S59,5.8,59,5s-0.1-1.5-0.3-2
		C58.5,2.4,58.3,2,58,1.8c-0.3-0.3-0.7-0.4-1-0.4c-0.4,0-0.7,0.1-1.1,0.4C55.6,2,55.3,2.4,55.2,3c-0.2,0.5-0.3,1.2-0.3,2
		s0.1,1.5,0.3,2c0.2,0.5,0.4,0.9,0.7,1.2c0.3,0.3,0.7,0.4,1.1,0.4C57.3,8.6,57.6,8.4,58,8.2z M56.6,5.5c-0.1-0.1-0.1-0.3-0.1-0.5
		s0-0.4,0.1-0.5c0.1-0.1,0.2-0.2,0.3-0.2c0.1,0,0.2,0.1,0.3,0.2c0.1,0.1,0.1,0.3,0.1,0.5s0,0.4-0.1,0.5c-0.1,0.1-0.2,0.2-0.3,0.2
		C56.8,5.7,56.7,5.6,56.6,5.5z"/>
	<path class="st0" d="M63.6,8.5c-0.4-0.2-0.6-0.7-0.9-1.3c-0.2-0.6-0.3-1.4-0.3-2.3s0.1-1.7,0.3-2.3s0.5-1,0.9-1.3
		C63.9,1.2,64.3,1,64.8,1c0.4,0,0.8,0.1,1.1,0.4s0.7,0.7,0.9,1.3C67,3.3,67.1,4,67.1,5S67,6.7,66.8,7.3c-0.2,0.6-0.5,1-0.9,1.3
		s-0.7,0.4-1.1,0.4C64.3,8.9,63.9,8.8,63.6,8.5z M65.8,8.2c0.3-0.3,0.6-0.7,0.7-1.2s0.3-1.2,0.3-2s-0.1-1.5-0.3-2
		c-0.2-0.5-0.4-0.9-0.7-1.2c-0.3-0.3-0.7-0.4-1-0.4c-0.4,0-0.7,0.1-1.1,0.4C63.4,2,63.2,2.4,63,3c-0.2,0.5-0.3,1.2-0.3,2
		s0.1,1.5,0.3,2c0.2,0.5,0.4,0.9,0.7,1.2c0.3,0.3,0.7,0.4,1.1,0.4C65.1,8.6,65.5,8.4,65.8,8.2z M64.5,5.5c-0.1-0.1-0.1-0.3-0.1-0.5
		s0-0.4,0.1-0.5c0.1-0.1,0.2-0.2,0.3-0.2c0.1,0,0.2,0.1,0.3,0.2c0.1,0.1,0.1,0.3,0.1,0.5s0,0.4-0.1,0.5c-0.1,0.1-0.2,0.2-0.3,0.2
		C64.6,5.7,64.5,5.6,64.5,5.5z"/>
	<path class="st0" d="M71.4,8.5c-0.4-0.2-0.6-0.7-0.9-1.3c-0.2-0.6-0.3-1.4-0.3-2.3s0.1-1.7,0.3-2.3s0.5-1,0.9-1.3
		C71.8,1.2,72.2,1,72.6,1c0.4,0,0.8,0.1,1.1,0.4s0.7,0.7,0.9,1.3C74.9,3.3,75,4,75,5s-0.1,1.7-0.4,2.3c-0.2,0.6-0.5,1-0.9,1.3
		S73,8.9,72.6,8.9C72.2,8.9,71.8,8.8,71.4,8.5z M73.6,8.2c0.3-0.3,0.6-0.7,0.7-1.2s0.3-1.2,0.3-2s-0.1-1.5-0.3-2
		c-0.2-0.5-0.4-0.9-0.7-1.2c-0.3-0.3-0.7-0.4-1-0.4c-0.4,0-0.7,0.1-1.1,0.4C71.3,2,71,2.4,70.8,3c-0.2,0.5-0.3,1.2-0.3,2
		s0.1,1.5,0.3,2c0.2,0.5,0.4,0.9,0.7,1.2c0.3,0.3,0.7,0.4,1.1,0.4C73,8.6,73.3,8.4,73.6,8.2z M72.3,5.5c-0.1-0.1-0.1-0.3-0.1-0.5
		s0-0.4,0.1-0.5c0.1-0.1,0.2-0.2,0.3-0.2c0.1,0,0.2,0.1,0.3,0.2C73,4.5,73,4.7,73,5s0,0.4-0.1,0.5c-0.1,0.1-0.2,0.2-0.3,0.2
		C72.5,5.7,72.4,5.6,72.3,5.5z"/>
	<path class="st0" d="M77.9,3.8c-0.2-0.2-0.4-0.6-0.4-1.1s0.1-0.9,0.4-1.1c0.2-0.2,0.5-0.3,0.9-0.3c0.4,0,0.7,0.1,0.9,0.3
		C79.9,1.8,80,2.2,80,2.7s-0.1,0.9-0.4,1.1c-0.2,0.2-0.5,0.4-0.9,0.4C78.4,4.1,78.1,4,77.9,3.8z M78.1,8.8h-0.4l5.1-7.7h0.4
		L78.1,8.8z M79.4,3.5c0.2-0.2,0.2-0.5,0.2-0.8c0-0.4-0.1-0.7-0.2-0.8c-0.2-0.2-0.4-0.3-0.7-0.3s-0.5,0.1-0.7,0.3
		C78,2,77.9,2.3,77.9,2.7c0,0.4,0.1,0.7,0.2,0.8c0.2,0.2,0.4,0.3,0.7,0.3S79.3,3.7,79.4,3.5z M81.3,8.4C81.1,8.1,81,7.8,81,7.3
		s0.1-0.9,0.4-1.1c0.2-0.2,0.5-0.3,0.9-0.3c0.4,0,0.7,0.1,0.9,0.3c0.2,0.2,0.4,0.6,0.4,1.1s-0.1,0.9-0.4,1.1
		c-0.2,0.2-0.5,0.4-0.9,0.4C81.9,8.7,81.6,8.6,81.3,8.4z M82.9,8.1C83,8,83.1,7.7,83.1,7.3c0-0.4-0.1-0.7-0.2-0.8
		c-0.2-0.2-0.4-0.3-0.6-0.3c-0.3,0-0.5,0.1-0.7,0.3c-0.2,0.2-0.2,0.4-0.2,0.8c0,0.4,0.1,0.7,0.2,0.8c0.2,0.2,0.4,0.3,0.7,0.3
		C82.5,8.4,82.7,8.3,82.9,8.1z"/>
</g>
<g>
	<path class="st0" d="M55.7,163.8c-0.4-0.2-0.6-0.7-0.9-1.3c-0.2-0.6-0.3-1.4-0.3-2.3s0.1-1.7,0.3-2.3s0.5-1,0.9-1.3
		c0.4-0.2,0.8-0.4,1.2-0.4c0.4,0,0.8,0.1,1.1,0.4s0.7,0.7,0.9,1.3c0.2,0.6,0.4,1.4,0.4,2.3s-0.1,1.7-0.4,2.3c-0.2,0.6-0.5,1-0.9,1.3
		s-0.7,0.4-1.1,0.4C56.5,164.2,56.1,164,55.7,163.8z M58,163.4c0.3-0.3,0.6-0.7,0.7-1.2s0.3-1.2,0.3-2s-0.1-1.5-0.3-2
		c-0.2-0.5-0.4-0.9-0.7-1.2c-0.3-0.3-0.7-0.4-1-0.4c-0.4,0-0.7,0.1-1.1,0.4c-0.3,0.3-0.5,0.7-0.7,1.2c-0.2,0.5-0.3,1.2-0.3,2
		s0.1,1.5,0.3,2c0.2,0.5,0.4,0.9,0.7,1.2c0.3,0.3,0.7,0.4,1.1,0.4C57.3,163.8,57.6,163.7,58,163.4z M56.6,160.8
		c-0.1-0.1-0.1-0.3-0.1-0.5s0-0.4,0.1-0.5c0.1-0.1,0.2-0.2,0.3-0.2c0.1,0,0.2,0.1,0.3,0.2c0.1,0.1,0.1,0.3,0.1,0.5s0,0.4-0.1,0.5
		c-0.1,0.1-0.2,0.2-0.3,0.2C56.8,160.9,56.7,160.9,56.6,160.8z"/>
	<path class="st0" d="M63.1,163.9c-0.4-0.2-0.7-0.4-1-0.7l0.3-0.2c0.2,0.3,0.5,0.5,0.8,0.6c0.4,0.1,0.8,0.2,1.2,0.2
		c0.7,0,1.2-0.2,1.6-0.6c0.4-0.4,0.6-1,0.6-1.7c0-0.7-0.2-1.3-0.5-1.6c-0.3-0.4-0.8-0.6-1.4-0.6c-0.5,0-0.9,0.1-1.2,0.3
		c-0.3,0.2-0.6,0.5-0.8,1l-0.1-0.3c0.1-0.3,0.2-0.5,0.4-0.7c0.2-0.2,0.4-0.4,0.8-0.5c0.3-0.1,0.6-0.2,1-0.2c0.7,0,1.3,0.2,1.7,0.6
		c0.4,0.4,0.6,1.1,0.6,1.9c0,0.9-0.2,1.5-0.7,2s-1.1,0.7-2,0.7C64,164.2,63.5,164.1,63.1,163.9z M66.9,156.7h-3.7l-0.4,3.9l-0.3-0.1
		l0.4-4.1h4V156.7z"/>
	<path class="st0" d="M71.4,163.8c-0.4-0.2-0.6-0.7-0.9-1.3c-0.2-0.6-0.3-1.4-0.3-2.3s0.1-1.7,0.3-2.3s0.5-1,0.9-1.3
		c0.4-0.2,0.8-0.4,1.2-0.4c0.4,0,0.8,0.1,1.1,0.4s0.7,0.7,0.9,1.3c0.2,0.6,0.4,1.4,0.4,2.3s-0.1,1.7-0.4,2.3c-0.2,0.6-0.5,1-0.9,1.3
		s-0.7,0.4-1.1,0.4C72.2,164.2,71.8,164,71.4,163.8z M73.6,163.4c0.3-0.3,0.6-0.7,0.7-1.2s0.3-1.2,0.3-2s-0.1-1.5-0.3-2
		c-0.2-0.5-0.4-0.9-0.7-1.2c-0.3-0.3-0.7-0.4-1-0.4c-0.4,0-0.7,0.1-1.1,0.4c-0.3,0.3-0.5,0.7-0.7,1.2c-0.2,0.5-0.3,1.2-0.3,2
		s0.1,1.5,0.3,2c0.2,0.5,0.4,0.9,0.7,1.2c0.3,0.3,0.7,0.4,1.1,0.4C73,163.8,73.3,163.7,73.6,163.4z M72.3,160.8
		c-0.1-0.1-0.1-0.3-0.1-0.5s0-0.4,0.1-0.5c0.1-0.1,0.2-0.2,0.3-0.2c0.1,0,0.2,0.1,0.3,0.2c0.1,0.1,0.1,0.3,0.1,0.5s0,0.4-0.1,0.5
		c-0.1,0.1-0.2,0.2-0.3,0.2C72.5,160.9,72.4,160.9,72.3,160.8z"/>
	<path class="st0" d="M77.9,159c-0.2-0.2-0.4-0.6-0.4-1.1s0.1-0.9,0.4-1.1c0.2-0.2,0.5-0.3,0.9-0.3c0.4,0,0.7,0.1,0.9,0.3
		c0.2,0.2,0.4,0.6,0.4,1.1s-0.1,0.9-0.4,1.1c-0.2,0.2-0.5,0.4-0.9,0.4C78.4,159.4,78.1,159.3,77.9,159z M78.1,164.1h-0.4l5.1-7.7
		h0.4L78.1,164.1z M79.4,158.8c0.2-0.2,0.2-0.5,0.2-0.8c0-0.4-0.1-0.7-0.2-0.8c-0.2-0.2-0.4-0.3-0.7-0.3s-0.5,0.1-0.7,0.3
		c-0.2,0.2-0.2,0.4-0.2,0.8c0,0.4,0.1,0.7,0.2,0.8c0.2,0.2,0.4,0.3,0.7,0.3S79.3,158.9,79.4,158.8z M81.3,163.6
		c-0.2-0.2-0.4-0.6-0.4-1.1s0.1-0.9,0.4-1.1c0.2-0.2,0.5-0.3,0.9-0.3c0.4,0,0.7,0.1,0.9,0.3c0.2,0.2,0.4,0.6,0.4,1.1
		s-0.1,0.9-0.4,1.1c-0.2,0.2-0.5,0.4-0.9,0.4C81.9,164,81.6,163.9,81.3,163.6z M82.9,163.4c0.2-0.2,0.2-0.5,0.2-0.8
		c0-0.4-0.1-0.7-0.2-0.8c-0.2-0.2-0.4-0.3-0.6-0.3c-0.3,0-0.5,0.1-0.7,0.3c-0.2,0.2-0.2,0.4-0.2,0.8c0,0.4,0.1,0.7,0.2,0.8
		c0.2,0.2,0.4,0.3,0.7,0.3C82.5,163.6,82.7,163.6,82.9,163.4z"/>
</g>
<line class="st2" x1="90.9" y1="164.1" x2="102.1" y2="164.1"/>
</svg>
