<?xml version="1.0" encoding="utf-8"?>
<!-- Generator: Adobe Illustrator 22.0.0, SVG Export Plug-In . SVG Version: 6.00 Build 0)  -->
<svg version="1.1" id="Layer_1" xmlns="http://www.w3.org/2000/svg" xmlns:xlink="http://www.w3.org/1999/xlink" x="0px" y="0px"
	 viewBox="0 0 626.3 327.8" style="enable-background:new 0 0 626.3 327.8;" xml:space="preserve">
<style type="text/css">
	.st0{fill:#FFFFFF;}
	.st1{fill:none;stroke:#FFFFFF;stroke-width:0.7491;stroke-miterlimit:10;}
	.st2{fill:none;stroke:#000000;stroke-width:0.25;stroke-miterlimit:10;}
</style>
<g>
	<g>
		<path class="st0" d="M146.1,251.7l-6.5-34.1h8.6l4.6,27.4h1.5l4.6-27.4h8.5l-6.5,34.1L146.1,251.7L146.1,251.7z"/>
		<path class="st0" d="M171.9,251.7l7.3-34.1h14.4l7.3,34.1h-8.6l-5.2-27.8h-1.4l-5.2,27.8L171.9,251.7L171.9,251.7z M179.1,244.2
			v-6.3h14.6v6.3H179.1z"/>
		<path class="st0" d="M206.9,251.7v-34.1h20.7l4,4.4v11.1l-3.1,3.5l3.1,3.4v11.8h-8.8v-10.9l-1.2-1.4h-5.9v12.3h-8.8V251.7z
			 M215.7,233.4h6l1.2-1.4v-7.1l-1-1.1h-6.1L215.7,233.4L215.7,233.4z"/>
		<path class="st0" d="M239.1,251.7v-34.1h8.8v34.1L239.1,251.7L239.1,251.7z"/>
		<path class="st0" d="M254,251.7l7.3-34.1h14.4l7.3,34.1h-8.6l-5.2-27.8h-1.4l-5.2,27.8L254,251.7L254,251.7z M261.1,244.2v-6.3
			h14.6v6.3H261.1z"/>
		<path class="st0" d="M288.9,251.7v-34.1h21l4,4.4v8.9l-3.1,3.4l3.1,3.5v9.5l-4,4.4L288.9,251.7L288.9,251.7z M297.7,231.4h6.3
			l1.2-1.3v-5.7l-1-1.1h-6.5V231.4z M297.7,246h6.5l1-1.1v-6.6l-1.2-1.4h-6.3V246z"/>
		<path class="st0" d="M321.5,251.7v-34.1h8.8v27.2h11.9v7h-20.7V251.7z"/>
		<path class="st0" d="M348,251.7v-34.1h20.6v6.2h-11.9v7.2h10.6v6.2h-10.6v8.3H369v6.2H348z"/>
		<path class="st0" d="M390.4,251.7v-34.1h20.4v6.4h-11.7v8.3h10.3v6.5h-10.3v13h-8.7V251.7z"/>
		<path class="st0" d="M421.1,251.7l-4-4.4v-29.7h8.8v26.9l1,1.1h5.7l1-1.1v-26.9h8.8v29.7l-4,4.4H421.1z"/>
		<path class="st0" d="M455.9,251.7v-27.3h-7.7v-6.8h24.2v6.8h-7.7v27.3H455.9z"/>
		<path class="st0" d="M482.3,251.7l-4-4.4v-29.7h8.8v26.9l1,1.1h5.7l1-1.1v-26.9h8.8v29.7l-4,4.4H482.3z"/>
		<path class="st0" d="M511.1,251.7v-34.1h20.7l4,4.4v11.1l-3.1,3.5l3.1,3.4v11.8H527v-10.9l-1.2-1.4h-5.9v12.3h-8.8V251.7z
			 M519.9,233.4h6l1.2-1.4v-7.1l-1-1.1H520v9.6H519.9z"/>
		<path class="st0" d="M543.4,251.7v-34.1H564v6.2h-11.9v7.2h10.6v6.2h-10.6v8.3h12.2v6.2H543.4z"/>
		<path class="st0" d="M574.4,251.7l-4-4.4v-5.2h8.3v2.6l1,1.1h6.4l1-1.1v-5.4l-1-1.2h-11.2l-4-4.4V222l4-4.4h16.2l4,4.4v4.8h-8.3
			v-2.2l-0.9-1.1h-5.5l-1,1.1v4.8l1,1.2h11.2l4,4.4v12.4l-4,4.4L574.4,251.7L574.4,251.7z"/>
	</g>
</g>
<polygon class="st0" points="157.8,0.5 150.8,33.8 147.3,33.8 140.3,0.5 139.8,0.5 146.9,34.2 151.2,34.2 158.3,0.5 "/>
<path class="st0" d="M172.8,0.9h3.6l4.5,21.5h-12.6L172.8,0.9z M172.3,0.5l-7,33.7h0.5l2.4-11.4h12.7l2.4,11.4h0.5l-7.1-33.7H172.3z
	"/>
<path class="st0" d="M193.2,0.9h10.9l3.3,3.6v9.9l-3.4,3.8h-10.8V0.9z M192.7,0.5v33.7h0.5V18.7H204l3.4,3.8v11.7h0.5V22.4l-3.5-3.9
	l3.5-3.9V4.3l-3.5-3.9L192.7,0.5L192.7,0.5z"/>
<rect x="218.7" y="0.5" class="st0" width="0.5" height="33.7"/>
<path class="st0" d="M235.5,0.9h3.6l4.5,21.5H231L235.5,0.9z M235.1,0.5l-7,33.7h0.5l2.4-11.4h12.7l2.4,11.4h0.5l-7.1-33.7H235.1z"
	/>
<path class="st0" d="M256,17.1h10.8l3.4,3.9v9.2l-3.2,3.6h-11L256,17.1L256,17.1z M256,0.9h11l3.2,3.6v8.3l-3.4,3.8H256V0.9z
	 M255.5,0.5v33.7h11.7l3.5-3.9v-9.5l-3.5-3.9l3.5-3.9V4.3l-3.5-3.9L255.5,0.5L255.5,0.5z"/>
<polygon class="st0" points="281.5,0.5 281.5,34.2 295.1,34.2 295.1,33.8 282,33.8 282,0.5 "/>
<polygon class="st0" points="302.3,0.5 302.3,34.2 316.5,34.2 316.5,33.8 302.8,33.8 302.8,16.9 315.2,16.9 315.2,16.4 302.8,16.4 
	302.8,0.9 316.3,0.9 316.3,0.5 "/>
<polygon class="st0" points="338.5,0.5 338.5,34.2 339,34.2 339,17.3 350.3,17.3 350.3,16.9 339,16.9 339,0.9 352.1,0.9 352.1,0.5 
	"/>
<polygon class="st0" points="376.7,0.5 376.7,30.2 373.4,33.8 363.8,33.8 360.6,30.2 360.6,0.5 360.1,0.5 360.1,30.3 363.6,34.2 
	373.7,34.2 377.2,30.3 377.2,0.5 "/>
<polygon class="st0" points="384.4,0.5 384.4,0.9 393.8,0.9 393.8,34.2 394.3,34.2 394.3,0.9 403.6,0.9 403.6,0.5 "/>
<polygon class="st0" points="427.4,0.5 427.4,30.2 424.2,33.8 414.5,33.8 411.3,30.2 411.3,0.5 410.8,0.5 410.8,30.3 414.3,34.2 
	424.4,34.2 427.9,30.3 427.9,0.5 "/>
<path class="st0" d="M439.2,0.9h10.9l3.3,3.6v9.9l-3.4,3.8h-10.8V0.9z M438.7,0.5v33.7h0.5V18.7H450l3.4,3.8v11.7h0.5V22.4l-3.5-3.9
	l3.5-3.9V4.3l-3.5-3.9L438.7,0.5L438.7,0.5z"/>
<polygon class="st0" points="464.7,0.5 464.7,34.2 478.9,34.2 478.9,33.8 465.2,33.8 465.2,16.9 477.6,16.9 477.6,16.4 465.2,16.4 
	465.2,0.9 478.7,0.9 478.7,0.5 "/>
<polygon class="st0" points="490.8,0.5 487.3,4.3 487.3,13.6 490.6,17.2 500.1,17.2 503.1,20.6 503.1,30.1 499.9,33.8 490.7,33.8 
	487.4,30.1 487.4,26.5 486.9,26.5 486.9,30.3 490.4,34.2 500.1,34.2 503.6,30.3 503.6,20.4 500.3,16.7 490.8,16.7 487.8,13.4 
	487.8,4.6 491.1,0.9 499.5,0.9 502.8,4.6 502.8,7.8 503.3,7.8 503.3,4.3 499.8,0.5 "/>
<polygon class="st0" points="158.4,146.9 152.9,175.9 150.8,175.9 145.4,146.9 139.8,146.9 146.6,180.7 157.1,180.7 163.9,146.9 "/>
<path class="st0" d="M174.7,167.3h13.8v4.6h-13.8V167.3z M169.4,180.7l7.1-33.7h10.3l7.1,33.7h-5.5l-5.8-29.2h-2l-5.8,29.2H169.4z"
	/>
<path class="st0" d="M206.5,162.9h7.8l1.8-2V153l-1.4-1.6h-8.2L206.5,162.9L206.5,162.9z M201,180.7V147h16.9l3.8,4.2V162l-3.1,3.4
	l3.1,3.4v11.9h-5.6v-11.1l-1.9-2.1h-7.7v13.2L201,180.7L201,180.7z"/>
<rect x="230.4" y="146.9" class="st0" width="5.6" height="33.7"/>
<path class="st0" d="M248.5,167.3h13.8v4.6h-13.8L248.5,167.3L248.5,167.3z M243.1,180.7l7.1-33.7h10.3l7.1,33.7h-5.5l-5.8-29.2h-2
	l-5.8,29.2H243.1z"/>
<path class="st0" d="M280.3,176.4h8.5l1.4-1.5v-7.3l-1.8-2h-8v10.8H280.3z M280.3,161.2h8l1.8-2v-6.4l-1.4-1.6h-8.5v10H280.3z
	 M274.7,180.7V147h17.2l3.8,4.2v8.9l-3.1,3.4l3.1,3.4v9.7l-3.8,4.2L274.7,180.7L274.7,180.7z"/>
<polygon class="st0" points="304.4,180.7 304.4,146.9 310,146.9 310,175.9 322.3,175.9 322.3,180.7 "/>
<polygon class="st0" points="328.6,180.7 328.6,146.9 346.3,146.9 346.3,151.4 334.2,151.4 334.2,160.9 345.1,160.9 345.1,165.5 
	334.2,165.5 334.2,176.2 346.7,176.2 346.7,180.7 "/>
<polygon class="st0" points="368.4,180.7 368.4,146.9 385.9,146.9 385.9,151.5 373.9,151.5 373.9,162 384.5,162 384.5,166.6 
	373.9,166.6 373.9,180.7 "/>
<polygon class="st0" points="396.5,180.7 392.7,176.5 392.7,146.9 398.3,146.9 398.3,174.6 399.7,176.1 407.2,176.1 408.6,174.6 
	408.6,146.9 414.2,146.9 414.2,176.5 410.4,180.7 "/>
<polygon class="st0" points="428.8,180.7 428.8,151.7 420.6,151.7 420.6,146.9 442.6,146.9 442.6,151.7 434.4,151.7 434.4,180.7 "/>
<polygon class="st0" points="452.8,180.7 449,176.5 449,146.9 454.5,146.9 454.5,174.6 455.9,176.1 463.5,176.1 464.9,174.6 
	464.9,146.9 470.5,146.9 470.5,176.5 466.6,180.7 "/>
<path class="st0" d="M484.8,162.9h7.8l1.8-2V153l-1.4-1.6h-8.2L484.8,162.9L484.8,162.9z M479.2,180.7V147h16.9l3.8,4.2V162
	l-3.1,3.4l3.1,3.4v11.9h-5.6v-11.1l-1.9-2.1h-7.7v13.2L479.2,180.7L479.2,180.7z"/>
<polygon class="st0" points="508.6,180.7 508.6,146.9 526.3,146.9 526.3,151.4 514.2,151.4 514.2,160.9 525.1,160.9 525.1,165.5 
	514.2,165.5 514.2,176.2 526.7,176.2 526.7,180.7 "/>
<polygon class="st0" points="537.5,180.7 533.6,176.5 533.6,171.4 539,171.4 539,174.8 540.4,176.3 548.5,176.3 549.8,174.8 
	549.8,167.6 548.4,166.1 537.9,166.1 534.1,162 534.1,151.1 538,146.9 551.1,146.9 554.9,151.1 554.9,155.7 549.5,155.7 
	549.5,152.8 548.2,151.4 540.9,151.4 539.7,152.8 539.7,159.4 541.1,160.9 551.6,160.9 555.3,165 555.3,176.5 551.5,180.7 "/>
<polygon class="st0" points="159.6,294.1 155.8,319.2 155,319.2 151.3,294.1 139.8,294.1 146,327.8 164.6,327.8 170.9,294.1 "/>
<path class="st0" d="M190.3,302.1h0.7l2.1,11.9h-5L190.3,302.1z M181.6,294.1l-7.3,33.7h11.3l1.1-6.1h7.8l1.1,6.1h11.5l-7.3-33.7
	H181.6z"/>
<path class="st0" d="M223.8,301.6h3.9l0.6,0.7v6.3l-0.6,0.7h-3.9V301.6z M211.9,294.1v33.7h11.9v-11h3.9l0.6,0.6v10.4h11.8v-11.3
	l-3.1-3.4l3.1-3.4v-11.1L236,294L211.9,294.1L211.9,294.1z"/>
<rect x="246.3" y="294.1" class="st0" width="11.9" height="33.7"/>
<path class="st0" d="M278.8,302.1h0.7l2.1,11.9h-5L278.8,302.1z M270.2,294.1l-7.3,33.7h11.3l1.1-6.1h7.8l1.1,6.1h11.5l-7.3-33.7
	H270.2z"/>
<path class="st0" d="M312.3,313.8h4.3l0.6,0.7v5.8l-0.6,0.7h-4.3V313.8z M312.3,300.9h4.3l0.6,0.7v4.9l-0.6,0.7h-4.3V300.9z
	 M300.4,294.1v33.7h24.5l4.1-4.6V314l-3.1-3.4l3.1-3.4v-8.6l-4.1-4.6h-24.5V294.1z"/>
<polygon class="st0" points="335.2,294.1 335.2,327.8 358.2,327.8 358.2,318.9 347.1,318.9 347.1,294.1 "/>
<polygon class="st0" points="363.4,294.1 363.4,327.8 386.8,327.8 386.8,320.1 375.2,320.1 375.2,314.4 385.4,314.4 385.4,306.6 
	375.2,306.6 375.2,301.8 386.5,301.8 386.5,294.1 "/>
<polygon class="st0" points="407.6,294.1 407.6,327.8 419.4,327.8 419.4,316.3 429.1,316.3 429.1,308.1 419.4,308.1 419.4,302.1 
	430.5,302.1 430.5,294.1 "/>
<polygon class="st0" points="452.5,294.1 452.5,319.6 451.9,320.3 448.2,320.3 447.6,319.6 447.6,294.1 435.7,294.1 435.7,323.3 
	439.9,327.8 460.2,327.8 464.3,323.3 464.3,294.1 "/>
<polygon class="st0" points="469.5,294.1 469.5,302.8 476.5,302.8 476.5,327.8 488.3,327.8 488.3,302.8 495.4,302.8 495.4,294.1 "/>
<polygon class="st0" points="517.3,294.1 517.3,319.6 516.7,320.3 513,320.3 512.4,319.6 512.4,294.1 500.5,294.1 500.5,323.3 
	504.7,327.8 525,327.8 529.1,323.3 529.1,294.1 "/>
<path class="st0" d="M547.2,301.6h3.9l0.6,0.7v6.3l-0.6,0.7h-3.9V301.6z M535.3,294.1v33.7h11.9v-11h3.9l0.6,0.6v10.4h11.8v-11.3
	l-3.1-3.4l3.1-3.4v-11.1l-4.1-4.6L535.3,294.1L535.3,294.1z"/>
<polygon class="st0" points="569.7,294.1 569.7,327.8 593.1,327.8 593.1,320.1 581.5,320.1 581.5,314.4 591.6,314.4 591.6,306.6 
	581.5,306.6 581.5,301.8 592.8,301.8 592.8,294.1 "/>
<polygon class="st0" points="602.8,294.1 598.6,298.6 598.6,311.1 602.8,315.7 614.2,315.7 614.9,316.3 614.9,319.9 614.2,320.6 
	609.8,320.6 609.2,319.9 609.2,318.1 598.2,318.1 598.2,323.3 602.3,327.8 622.1,327.8 626.3,323.3 626.3,310.3 622.1,305.7 
	610.6,305.7 610,305.1 610,302 610.6,301.3 614.2,301.3 614.8,302 614.8,303.5 625.8,303.5 625.8,298.6 621.7,294.1 "/>
<polyline class="st1" points="102.1,0.5 90.9,0.5 90.9,326.9 102.1,326.9 "/>
<line class="st2" x1="90.9" y1="164.1" x2="102.1" y2="164.1"/>
<g>
	<path class="st0" d="M148.4,105.6l-7.6-33.5h2.6l7,31.3h3.2l7-31.3h2.6l-7.7,33.5H148.4z"/>
	<path class="st0" d="M168,105.6l7.7-33.5h7.1l7.7,33.5H188l-7.1-31.3h-3.2l-7.1,31.3H168z M172,95.3v-2.2h14.7v2.2H172z"/>
	<path class="st0" d="M197.4,105.6V72.1h14.8l3.9,3.9v10.5l-3.6,3.6l3.6,3.6v11.9h-2.6V94.2l-3-3H200v14.4H197.4z M200,89h10.5
		l2.9-3v-9l-2.6-2.6H200V89z"/>
	<path class="st0" d="M224.9,105.6V72.1h2.6v33.5H224.9z"/>
	<path class="st0" d="M234.2,105.6l7.7-33.5h7.1l7.7,33.5h-2.6l-7.1-31.3h-3.2l-7.1,31.3H234.2z M238.2,95.3v-2.2h14.7v2.2H238.2z"
		/>
	<path class="st0" d="M263.6,105.6V72.1h14.9l3.9,3.9v8.8l-3.6,3.6l3.6,3.6v9.6l-3.9,3.9H263.6z M266.2,87.3h10.6l2.9-3v-7.4
		l-2.5-2.7h-11V87.3z M266.2,103.5h11l2.5-2.7v-8.3l-2.9-3h-10.6V103.5z"/>
	<path class="st0" d="M291.1,105.6V72.1h2.6v31.3h13.9v2.2H291.1z"/>
	<path class="st0" d="M313,105.6V72.1h16.7v2.1h-14v12.9h12.8v2.2h-12.8v14.2h14.4v2.1H313z"/>
	<path class="st0" d="M349.5,105.6V72.1h16.3v2.1h-13.7v13.6h12V90h-12v15.6H349.5z"/>
	<path class="st0" d="M375.9,105.6l-3.9-3.9V72.1h2.6v28.7l2.5,2.6h9.9l2.6-2.6V72.1h2.6v29.6l-4,3.9H375.9z"/>
	<path class="st0" d="M407.3,105.6V74.4h-9.7v-2.3h22v2.3h-9.6v31.2H407.3z"/>
	<path class="st0" d="M428.9,105.6l-3.9-3.9V72.1h2.6v28.7l2.5,2.6h9.9l2.6-2.6V72.1h2.6v29.6l-4,3.9H428.9z"/>
	<path class="st0" d="M453.9,105.6V72.1h14.8l3.9,3.9v10.5l-3.6,3.6l3.6,3.6v11.9H470V94.2l-3-3h-10.5v14.4H453.9z M456.5,89h10.5
		l2.9-3v-9l-2.6-2.6h-10.9V89z"/>
	<path class="st0" d="M481.4,105.6V72.1H498v2.1h-14v12.9h12.8v2.2H484v14.2h14.4v2.1H481.4z"/>
	<path class="st0" d="M508.4,105.6l-4-3.9v-4.5h2.6v3.7l2.5,2.6h10l2.5-2.6v-8.6l-2.5-2.5h-10.8l-3.8-3.8v-9.9l4-3.9h11.4l3.9,3.9v4
		h-2.5v-3.2l-2.6-2.6h-9.1l-2.5,2.6v8l2.5,2.5h10.8l3.8,3.8v10.5l-4,3.9H508.4z"/>
</g>
<g>
	<path class="st0" d="M1.1,322.8v3H0.3v-8.4h2.7c0.5,0,1,0.1,1.4,0.2c0.4,0.1,0.7,0.4,1,0.7s0.4,1,0.4,1.8c0,0.8-0.1,1.4-0.4,1.8
		s-0.6,0.7-1,0.8s-0.9,0.2-1.3,0.2H1.1z M1.1,322.1h2c0.3,0,0.6,0,0.9-0.1c0.3-0.1,0.5-0.3,0.7-0.6c0.2-0.3,0.3-0.8,0.3-1.4
		c0-0.6-0.1-1-0.3-1.3s-0.4-0.5-0.7-0.6C3.7,318,3.4,318,3.1,318h-2V322.1z"/>
	<path class="st0" d="M8.3,325.1c-0.5-0.5-0.8-1.3-0.8-2.4c0-1.1,0.3-1.9,0.8-2.4c0.5-0.5,1.2-0.8,2-0.8c0.8,0,1.5,0.3,2,0.8
		c0.5,0.5,0.8,1.3,0.8,2.4c0,1.1-0.3,1.9-0.8,2.4c-0.5,0.5-1.2,0.8-2,0.8C9.5,325.9,8.8,325.6,8.3,325.1z M11.3,325
		c0.3-0.2,0.5-0.4,0.7-0.8s0.2-0.9,0.2-1.5c0-0.6-0.1-1.1-0.2-1.4s-0.4-0.6-0.7-0.8c-0.3-0.2-0.6-0.2-1-0.2c-0.4,0-0.7,0.1-1,0.2
		c-0.3,0.2-0.5,0.4-0.7,0.8c-0.2,0.4-0.2,0.8-0.2,1.4c0,0.6,0.1,1.1,0.2,1.5c0.2,0.4,0.4,0.6,0.7,0.8c0.3,0.2,0.6,0.2,1,0.2
		C10.7,325.2,11,325.1,11.3,325z"/>
	<path class="st0" d="M20.3,325.1v0.7h-3.1v-8.9h-2v-0.7H18v8.9H20.3z"/>
	<path class="st0" d="M27.6,322.3c0-0.3-0.1-0.7-0.2-1c-0.1-0.3-0.4-0.6-0.7-0.8c-0.3-0.2-0.6-0.3-1.1-0.3c-0.4,0-0.8,0.1-1.1,0.3
		s-0.6,0.5-0.8,0.8s-0.3,0.8-0.3,1.4c0,0.5,0.1,0.9,0.2,1.3s0.4,0.6,0.7,0.8c0.3,0.2,0.7,0.3,1.1,0.3c0.5,0,0.9-0.1,1.2-0.3
		c0.3-0.2,0.6-0.4,0.7-0.7l0,0l0.7,0.4c-0.1,0.2-0.3,0.4-0.6,0.6c-0.2,0.2-0.5,0.3-0.9,0.5s-0.8,0.2-1.2,0.2c-0.6,0-1.1-0.1-1.5-0.4
		c-0.4-0.2-0.8-0.6-1.1-1.1s-0.4-1-0.4-1.7c0-0.7,0.1-1.2,0.4-1.7c0.3-0.5,0.6-0.8,1.1-1.1c0.4-0.2,0.9-0.3,1.5-0.3
		c0.6,0,1.1,0.1,1.5,0.4c0.4,0.3,0.7,0.7,0.9,1.2s0.3,1.1,0.2,1.7h-5.1v-0.6H27.6z"/>
	<path class="st0" d="M43.3,321.6c-0.4,0.7-1,1.3-1.6,1.9c-0.7,0.6-1.3,1.1-2,1.6l4.3,0v0.7h-5.6v-0.7c0.9-0.6,1.7-1.2,2.4-1.8
		s1.3-1.2,1.7-1.8s0.7-1.2,0.7-1.8c0-0.3-0.1-0.6-0.2-0.9c-0.1-0.3-0.4-0.5-0.6-0.6c-0.3-0.2-0.6-0.2-1-0.2c-0.3,0-0.6,0-0.9,0.1
		c-0.3,0.1-0.5,0.2-0.7,0.4c-0.2,0.2-0.4,0.3-0.5,0.5l-0.7-0.4c0.2-0.3,0.4-0.5,0.7-0.7c0.3-0.2,0.6-0.3,1-0.4
		c0.4-0.1,0.7-0.1,1.1-0.1c0.6,0,1.1,0.1,1.5,0.3s0.7,0.5,0.9,0.9s0.3,0.8,0.3,1.2C43.9,320.3,43.7,320.9,43.3,321.6z"/>
	<path class="st0" d="M59.1,325.1v0.7h-4.8v-0.7h2v-6.9l-2,1l-0.3-0.6l2.4-1.3h0.7v7.7H59.1z"/>
	<path class="st0" d="M62.9,325.5c-0.4-0.3-0.8-0.7-1-1.4c-0.3-0.6-0.4-1.5-0.4-2.5s0.1-1.9,0.4-2.5s0.6-1.1,1-1.4
		c0.4-0.3,0.9-0.4,1.4-0.4c0.5,0,0.9,0.1,1.4,0.4c0.4,0.3,0.8,0.7,1.1,1.4c0.3,0.6,0.4,1.5,0.4,2.5s-0.1,1.9-0.4,2.5
		c-0.3,0.6-0.6,1.1-1.1,1.4c-0.4,0.3-0.9,0.4-1.4,0.4C63.8,325.9,63.3,325.8,62.9,325.5z M65.4,324.8c0.3-0.2,0.5-0.6,0.7-1.2
		c0.2-0.5,0.3-1.2,0.3-2.1s-0.1-1.5-0.3-2.1c-0.2-0.5-0.4-0.9-0.7-1.2c-0.3-0.2-0.6-0.4-1-0.4c-0.4,0-0.8,0.1-1.1,0.4
		s-0.5,0.6-0.7,1.2c-0.2,0.5-0.3,1.2-0.3,2.1s0.1,1.5,0.3,2.1c0.2,0.5,0.4,0.9,0.7,1.2s0.6,0.4,1.1,0.4
		C64.7,325.2,65.1,325.1,65.4,324.8z M63.9,322.3c-0.1-0.1-0.2-0.4-0.2-0.7s0.1-0.6,0.2-0.7c0.1-0.1,0.3-0.2,0.4-0.2
		c0.2,0,0.3,0.1,0.4,0.2c0.1,0.1,0.2,0.3,0.2,0.7s-0.1,0.6-0.2,0.7c-0.1,0.1-0.3,0.2-0.4,0.2C64.2,322.5,64,322.4,63.9,322.3z"/>
	<path class="st0" d="M70.6,325.5c-0.4-0.3-0.8-0.7-1-1.4c-0.3-0.6-0.4-1.5-0.4-2.5s0.1-1.9,0.4-2.5s0.6-1.1,1-1.4
		c0.4-0.3,0.9-0.4,1.4-0.4c0.5,0,0.9,0.1,1.4,0.4c0.4,0.3,0.8,0.7,1.1,1.4c0.3,0.6,0.4,1.5,0.4,2.5s-0.1,1.9-0.4,2.5
		c-0.3,0.6-0.6,1.1-1.1,1.4c-0.4,0.3-0.9,0.4-1.4,0.4C71.5,325.9,71.1,325.8,70.6,325.5z M73.1,324.8c0.3-0.2,0.5-0.6,0.7-1.2
		c0.2-0.5,0.3-1.2,0.3-2.1s-0.1-1.5-0.3-2.1c-0.2-0.5-0.4-0.9-0.7-1.2c-0.3-0.2-0.6-0.4-1-0.4c-0.4,0-0.8,0.1-1.1,0.4
		s-0.5,0.6-0.7,1.2c-0.2,0.5-0.3,1.2-0.3,2.1s0.1,1.5,0.3,2.1c0.2,0.5,0.4,0.9,0.7,1.2s0.6,0.4,1.1,0.4
		C72.4,325.2,72.8,325.1,73.1,324.8z M71.6,322.3c-0.1-0.1-0.2-0.4-0.2-0.7s0.1-0.6,0.2-0.7c0.1-0.1,0.3-0.2,0.4-0.2
		c0.2,0,0.3,0.1,0.4,0.2c0.1,0.1,0.2,0.3,0.2,0.7s-0.1,0.6-0.2,0.7c-0.1,0.1-0.3,0.2-0.4,0.2C71.9,322.5,71.7,322.4,71.6,322.3z"/>
	<path class="st0" d="M76.9,320.3c-0.3-0.3-0.4-0.7-0.4-1.2s0.1-0.9,0.4-1.2s0.6-0.4,1-0.4c0.4,0,0.8,0.1,1,0.4
		c0.3,0.3,0.4,0.7,0.4,1.2s-0.1,0.9-0.4,1.2c-0.3,0.3-0.6,0.4-1,0.4C77.5,320.7,77.1,320.5,76.9,320.3z M77.5,325.8h-0.9l5.5-8.4H83
		L77.5,325.8z M78.5,319.9c0.2-0.2,0.2-0.4,0.2-0.8c0-0.4-0.1-0.6-0.2-0.8s-0.4-0.2-0.6-0.2c-0.3,0-0.5,0.1-0.6,0.2
		c-0.2,0.2-0.2,0.4-0.2,0.8c0,0.4,0.1,0.6,0.2,0.8c0.2,0.2,0.4,0.2,0.6,0.2C78.2,320.1,78.4,320,78.5,319.9z M80.7,325.3
		c-0.3-0.3-0.4-0.7-0.4-1.2c0-0.5,0.1-0.9,0.4-1.2c0.3-0.3,0.6-0.4,1-0.4c0.4,0,0.8,0.1,1,0.4c0.3,0.3,0.4,0.7,0.4,1.2
		c0,0.5-0.1,0.9-0.4,1.2c-0.3,0.3-0.6,0.4-1,0.4C81.3,325.7,81,325.6,80.7,325.3z M82.4,324.9c0.1-0.2,0.2-0.4,0.2-0.8
		c0-0.4-0.1-0.6-0.2-0.8s-0.4-0.2-0.6-0.2c-0.3,0-0.5,0.1-0.6,0.2s-0.2,0.4-0.2,0.8c0,0.4,0.1,0.6,0.2,0.8c0.1,0.2,0.3,0.2,0.6,0.2
		C82,325.1,82.2,325,82.4,324.9z"/>
</g>
<g>
	<path class="st0" d="M55.2,164.2c-0.4-0.3-0.8-0.7-1-1.4c-0.3-0.6-0.4-1.5-0.4-2.5s0.1-1.9,0.4-2.5s0.6-1.1,1-1.4
		c0.4-0.3,0.9-0.4,1.4-0.4c0.5,0,0.9,0.1,1.4,0.4c0.4,0.3,0.8,0.7,1.1,1.4c0.3,0.6,0.4,1.5,0.4,2.5s-0.1,1.9-0.4,2.5
		c-0.3,0.6-0.6,1.1-1.1,1.4c-0.4,0.3-0.9,0.4-1.4,0.4C56.1,164.6,55.6,164.5,55.2,164.2z M57.7,163.6c0.3-0.2,0.5-0.6,0.7-1.2
		c0.2-0.5,0.3-1.2,0.3-2.1s-0.1-1.5-0.3-2.1c-0.2-0.5-0.4-0.9-0.7-1.2c-0.3-0.2-0.6-0.4-1-0.4c-0.4,0-0.8,0.1-1.1,0.4
		s-0.5,0.6-0.7,1.2c-0.2,0.5-0.3,1.2-0.3,2.1s0.1,1.5,0.3,2.1c0.2,0.5,0.4,0.9,0.7,1.2s0.6,0.4,1.1,0.4
		C57,163.9,57.4,163.8,57.7,163.6z M56.2,161c-0.1-0.1-0.2-0.4-0.2-0.7s0.1-0.6,0.2-0.7c0.1-0.1,0.3-0.2,0.4-0.2
		c0.2,0,0.3,0.1,0.4,0.2c0.1,0.1,0.2,0.3,0.2,0.7s-0.1,0.6-0.2,0.7c-0.1,0.1-0.3,0.2-0.4,0.2C56.5,161.2,56.3,161.1,56.2,161z"/>
	<path class="st0" d="M62.5,164.3c-0.5-0.2-0.9-0.5-1.1-0.9l0.7-0.4c0.2,0.3,0.5,0.5,0.8,0.7c0.4,0.2,0.8,0.2,1.3,0.2
		c0.7,0,1.2-0.2,1.6-0.6c0.4-0.4,0.5-0.9,0.5-1.7c0-0.7-0.2-1.2-0.5-1.6c-0.3-0.4-0.8-0.5-1.4-0.5c-0.5,0-0.9,0.1-1.2,0.3
		s-0.6,0.5-0.8,0.9l-0.3-0.4c0.1-0.3,0.2-0.6,0.5-0.8c0.2-0.2,0.5-0.4,0.8-0.6c0.3-0.1,0.7-0.2,1.1-0.2c0.8,0,1.5,0.2,2,0.7
		c0.5,0.5,0.7,1.2,0.7,2.1c0,0.9-0.3,1.7-0.8,2.2c-0.5,0.5-1.2,0.7-2.2,0.7C63.5,164.6,62.9,164.5,62.5,164.3z M66.8,156.8h-4
		l-0.5,4.1l-0.7-0.3l0.5-4.5h4.7V156.8z"/>
	<path class="st0" d="M70.6,164.2c-0.4-0.3-0.8-0.7-1-1.4c-0.3-0.6-0.4-1.5-0.4-2.5s0.1-1.9,0.4-2.5s0.6-1.1,1-1.4
		c0.4-0.3,0.9-0.4,1.4-0.4c0.5,0,0.9,0.1,1.4,0.4c0.4,0.3,0.8,0.7,1.1,1.4c0.3,0.6,0.4,1.5,0.4,2.5s-0.1,1.9-0.4,2.5
		c-0.3,0.6-0.6,1.1-1.1,1.4c-0.4,0.3-0.9,0.4-1.4,0.4C71.5,164.6,71.1,164.5,70.6,164.2z M73.1,163.6c0.3-0.2,0.5-0.6,0.7-1.2
		c0.2-0.5,0.3-1.2,0.3-2.1s-0.1-1.5-0.3-2.1c-0.2-0.5-0.4-0.9-0.7-1.2c-0.3-0.2-0.6-0.4-1-0.4c-0.4,0-0.8,0.1-1.1,0.4
		s-0.5,0.6-0.7,1.2c-0.2,0.5-0.3,1.2-0.3,2.1s0.1,1.5,0.3,2.1c0.2,0.5,0.4,0.9,0.7,1.2s0.6,0.4,1.1,0.4
		C72.4,163.9,72.8,163.8,73.1,163.6z M71.6,161c-0.1-0.1-0.2-0.4-0.2-0.7s0.1-0.6,0.2-0.7c0.1-0.1,0.3-0.2,0.4-0.2
		c0.2,0,0.3,0.1,0.4,0.2c0.1,0.1,0.2,0.3,0.2,0.7s-0.1,0.6-0.2,0.7c-0.1,0.1-0.3,0.2-0.4,0.2C71.9,161.2,71.7,161.1,71.6,161z"/>
	<path class="st0" d="M76.9,159c-0.3-0.3-0.4-0.7-0.4-1.2s0.1-0.9,0.4-1.2s0.6-0.4,1-0.4c0.4,0,0.8,0.1,1,0.4
		c0.3,0.3,0.4,0.7,0.4,1.2s-0.1,0.9-0.4,1.2c-0.3,0.3-0.6,0.4-1,0.4C77.5,159.4,77.1,159.3,76.9,159z M77.5,164.5h-0.9l5.5-8.4H83
		L77.5,164.5z M78.5,158.6c0.2-0.2,0.2-0.4,0.2-0.8c0-0.4-0.1-0.6-0.2-0.8s-0.4-0.2-0.6-0.2c-0.3,0-0.5,0.1-0.6,0.2
		c-0.2,0.2-0.2,0.4-0.2,0.8c0,0.4,0.1,0.6,0.2,0.8c0.2,0.2,0.4,0.2,0.6,0.2C78.2,158.8,78.4,158.8,78.5,158.6z M80.7,164
		c-0.3-0.3-0.4-0.7-0.4-1.2c0-0.5,0.1-0.9,0.4-1.2c0.3-0.3,0.6-0.4,1-0.4c0.4,0,0.8,0.1,1,0.4c0.3,0.3,0.4,0.7,0.4,1.2
		c0,0.5-0.1,0.9-0.4,1.2c-0.3,0.3-0.6,0.4-1,0.4C81.3,164.4,81,164.3,80.7,164z M82.4,163.6c0.1-0.2,0.2-0.4,0.2-0.8
		c0-0.4-0.1-0.6-0.2-0.8s-0.4-0.2-0.6-0.2c-0.3,0-0.5,0.1-0.6,0.2s-0.2,0.4-0.2,0.8c0,0.4,0.1,0.6,0.2,0.8c0.1,0.2,0.3,0.2,0.6,0.2
		C82,163.9,82.2,163.8,82.4,163.6z"/>
</g>
<g>
	<path class="st0" d="M1.1,6.5v3H0.3V1.1h2.7c0.5,0,1,0.1,1.4,0.2C4.7,1.4,5,1.6,5.3,2s0.4,1,0.4,1.8c0,0.8-0.1,1.4-0.4,1.8
		s-0.6,0.7-1,0.8S3.4,6.5,2.9,6.5H1.1z M1.1,5.9h2c0.3,0,0.6,0,0.9-0.1c0.3-0.1,0.5-0.3,0.7-0.6c0.2-0.3,0.3-0.8,0.3-1.4
		c0-0.6-0.1-1-0.3-1.3S4.2,2,4,1.9C3.7,1.8,3.4,1.8,3.1,1.8h-2V5.9z"/>
	<path class="st0" d="M8.3,8.9C7.8,8.4,7.6,7.6,7.6,6.5c0-1.1,0.3-1.9,0.8-2.4c0.5-0.5,1.2-0.8,2-0.8c0.8,0,1.5,0.3,2,0.8
		C12.8,4.6,13,5.4,13,6.5c0,1.1-0.3,1.9-0.8,2.4c-0.5,0.5-1.2,0.8-2,0.8C9.5,9.6,8.8,9.4,8.3,8.9z M11.3,8.7
		c0.3-0.2,0.5-0.4,0.7-0.8s0.2-0.9,0.2-1.5c0-0.6-0.1-1.1-0.2-1.4s-0.4-0.6-0.7-0.8C11,4.1,10.7,4,10.3,4c-0.4,0-0.7,0.1-1,0.2
		C9,4.4,8.8,4.7,8.7,5C8.5,5.4,8.4,5.9,8.4,6.5c0,0.6,0.1,1.1,0.2,1.5C8.8,8.3,9,8.6,9.3,8.7c0.3,0.2,0.6,0.2,1,0.2
		C10.7,8.9,11,8.9,11.3,8.7z"/>
	<path class="st0" d="M20.3,8.8v0.7h-3.1V0.6h-2v-0.7H18v8.9H20.3z"/>
	<path class="st0" d="M27.6,6.1c0-0.3-0.1-0.7-0.2-1c-0.1-0.3-0.4-0.6-0.7-0.8C26.5,4.1,26.1,4,25.7,4c-0.4,0-0.8,0.1-1.1,0.3
		s-0.6,0.5-0.8,0.8S23.6,6,23.6,6.5c0,0.5,0.1,0.9,0.2,1.3s0.4,0.6,0.7,0.8c0.3,0.2,0.7,0.3,1.1,0.3c0.5,0,0.9-0.1,1.2-0.3
		c0.3-0.2,0.6-0.4,0.7-0.7l0,0l0.7,0.4C28.2,8.6,28,8.8,27.8,9c-0.2,0.2-0.5,0.3-0.9,0.5s-0.8,0.2-1.2,0.2c-0.6,0-1.1-0.1-1.5-0.4
		c-0.4-0.2-0.8-0.6-1.1-1.1s-0.4-1-0.4-1.7c0-0.7,0.1-1.2,0.4-1.7c0.3-0.5,0.6-0.8,1.1-1.1c0.4-0.2,0.9-0.3,1.5-0.3
		c0.6,0,1.1,0.1,1.5,0.4C27.7,4.1,28,4.5,28.2,5s0.3,1.1,0.2,1.7h-5.1V6.1H27.6z"/>
	<path class="st0" d="M43.7,8.8v0.7h-4.8V8.8h2V1.9l-2,1l-0.3-0.6l2.4-1.3h0.7v7.7H43.7z"/>
	<path class="st0" d="M55.2,9.2c-0.4-0.3-0.8-0.7-1-1.4c-0.3-0.6-0.4-1.5-0.4-2.5s0.1-1.9,0.4-2.5s0.6-1.1,1-1.4
		C55.6,1.2,56.1,1,56.6,1c0.5,0,0.9,0.1,1.4,0.4c0.4,0.3,0.8,0.7,1.1,1.4c0.3,0.6,0.4,1.5,0.4,2.5S59.3,7.2,59,7.9
		C58.8,8.5,58.4,9,58,9.2c-0.4,0.3-0.9,0.4-1.4,0.4C56.1,9.6,55.6,9.5,55.2,9.2z M57.7,8.6c0.3-0.2,0.5-0.6,0.7-1.2
		c0.2-0.5,0.3-1.2,0.3-2.1s-0.1-1.5-0.3-2.1c-0.2-0.5-0.4-0.9-0.7-1.2c-0.3-0.2-0.6-0.4-1-0.4c-0.4,0-0.8,0.1-1.1,0.4
		S55,2.7,54.9,3.3c-0.2,0.5-0.3,1.2-0.3,2.1s0.1,1.5,0.3,2.1c0.2,0.5,0.4,0.9,0.7,1.2s0.6,0.4,1.1,0.4C57,8.9,57.4,8.8,57.7,8.6z
		 M56.2,6C56.1,5.9,56,5.7,56,5.3s0.1-0.6,0.2-0.7c0.1-0.1,0.3-0.2,0.4-0.2c0.2,0,0.3,0.1,0.4,0.2c0.1,0.1,0.2,0.3,0.2,0.7
		S57.2,5.9,57.1,6c-0.1,0.1-0.3,0.2-0.4,0.2C56.5,6.2,56.3,6.1,56.2,6z"/>
	<path class="st0" d="M62.9,9.2c-0.4-0.3-0.8-0.7-1-1.4c-0.3-0.6-0.4-1.5-0.4-2.5s0.1-1.9,0.4-2.5s0.6-1.1,1-1.4
		C63.3,1.2,63.8,1,64.3,1c0.5,0,0.9,0.1,1.4,0.4c0.4,0.3,0.8,0.7,1.1,1.4c0.3,0.6,0.4,1.5,0.4,2.5S67,7.2,66.8,7.9
		c-0.3,0.6-0.6,1.1-1.1,1.4c-0.4,0.3-0.9,0.4-1.4,0.4C63.8,9.6,63.3,9.5,62.9,9.2z M65.4,8.6c0.3-0.2,0.5-0.6,0.7-1.2
		c0.2-0.5,0.3-1.2,0.3-2.1s-0.1-1.5-0.3-2.1c-0.2-0.5-0.4-0.9-0.7-1.2c-0.3-0.2-0.6-0.4-1-0.4c-0.4,0-0.8,0.1-1.1,0.4
		s-0.5,0.6-0.7,1.2c-0.2,0.5-0.3,1.2-0.3,2.1s0.1,1.5,0.3,2.1c0.2,0.5,0.4,0.9,0.7,1.2s0.6,0.4,1.1,0.4C64.7,8.9,65.1,8.8,65.4,8.6z
		 M63.9,6c-0.1-0.1-0.2-0.4-0.2-0.7s0.1-0.6,0.2-0.7c0.1-0.1,0.3-0.2,0.4-0.2c0.2,0,0.3,0.1,0.4,0.2c0.1,0.1,0.2,0.3,0.2,0.7
		S64.9,5.9,64.8,6c-0.1,0.1-0.3,0.2-0.4,0.2C64.2,6.2,64,6.1,63.9,6z"/>
	<path class="st0" d="M70.6,9.2c-0.4-0.3-0.8-0.7-1-1.4c-0.3-0.6-0.4-1.5-0.4-2.5s0.1-1.9,0.4-2.5s0.6-1.1,1-1.4
		C71.1,1.2,71.5,1,72.1,1c0.5,0,0.9,0.1,1.4,0.4c0.4,0.3,0.8,0.7,1.1,1.4c0.3,0.6,0.4,1.5,0.4,2.5s-0.1,1.9-0.4,2.5
		c-0.3,0.6-0.6,1.1-1.1,1.4c-0.4,0.3-0.9,0.4-1.4,0.4C71.5,9.6,71.1,9.5,70.6,9.2z M73.1,8.6c0.3-0.2,0.5-0.6,0.7-1.2
		c0.2-0.5,0.3-1.2,0.3-2.1S74,3.8,73.8,3.3c-0.2-0.5-0.4-0.9-0.7-1.2c-0.3-0.2-0.6-0.4-1-0.4c-0.4,0-0.8,0.1-1.1,0.4
		s-0.5,0.6-0.7,1.2c-0.2,0.5-0.3,1.2-0.3,2.1s0.1,1.5,0.3,2.1c0.2,0.5,0.4,0.9,0.7,1.2s0.6,0.4,1.1,0.4C72.4,8.9,72.8,8.8,73.1,8.6z
		 M71.6,6c-0.1-0.1-0.2-0.4-0.2-0.7s0.1-0.6,0.2-0.7c0.1-0.1,0.3-0.2,0.4-0.2c0.2,0,0.3,0.1,0.4,0.2c0.1,0.1,0.2,0.3,0.2,0.7
		S72.6,5.9,72.5,6c-0.1,0.1-0.3,0.2-0.4,0.2C71.9,6.2,71.7,6.1,71.6,6z"/>
	<path class="st0" d="M76.9,4c-0.3-0.3-0.4-0.7-0.4-1.2s0.1-0.9,0.4-1.2s0.6-0.4,1-0.4c0.4,0,0.8,0.1,1,0.4c0.3,0.3,0.4,0.7,0.4,1.2
		S79.2,3.8,79,4c-0.3,0.3-0.6,0.4-1,0.4C77.5,4.4,77.1,4.3,76.9,4z M77.5,9.5h-0.9l5.5-8.4H83L77.5,9.5z M78.5,3.6
		c0.2-0.2,0.2-0.4,0.2-0.8c0-0.4-0.1-0.6-0.2-0.8s-0.4-0.2-0.6-0.2c-0.3,0-0.5,0.1-0.6,0.2c-0.2,0.2-0.2,0.4-0.2,0.8
		c0,0.4,0.1,0.6,0.2,0.8c0.2,0.2,0.4,0.2,0.6,0.2C78.2,3.8,78.4,3.8,78.5,3.6z M80.7,9c-0.3-0.3-0.4-0.7-0.4-1.2
		c0-0.5,0.1-0.9,0.4-1.2c0.3-0.3,0.6-0.4,1-0.4c0.4,0,0.8,0.1,1,0.4c0.3,0.3,0.4,0.7,0.4,1.2c0,0.5-0.1,0.9-0.4,1.2
		c-0.3,0.3-0.6,0.4-1,0.4C81.3,9.4,81,9.3,80.7,9z M82.4,8.6c0.1-0.2,0.2-0.4,0.2-0.8c0-0.4-0.1-0.6-0.2-0.8S82,6.8,81.7,6.8
		c-0.3,0-0.5,0.1-0.6,0.2s-0.2,0.4-0.2,0.8c0,0.4,0.1,0.6,0.2,0.8c0.1,0.2,0.3,0.2,0.6,0.2C82,8.9,82.2,8.8,82.4,8.6z"/>
</g>
</svg>
