<?xml version="1.0" encoding="utf-8"?>
<!-- Generator: Adobe Illustrator 22.0.0, SVG Export Plug-In . SVG Version: 6.00 Build 0)  -->
<svg version="1.1" id="Layer_1" xmlns="http://www.w3.org/2000/svg" xmlns:xlink="http://www.w3.org/1999/xlink" x="0px" y="0px"
	 viewBox="0 0 2353.7 844.1" style="enable-background:new 0 0 2353.7 844.1;" xml:space="preserve">
<style type="text/css">
	.st0{fill:#9B1ACD;}
</style>
<g>
	<path class="st0" d="M403.7,367.7V196.6L390.1,183h-84v198.3h84L403.7,367.7z M314,373.3V191.1h72.8l8.8,8.8v164.5l-8.8,8.8H314z"
		/>
	<path class="st0" d="M395.7,569.1v271h310.1V543.5l-76.7-76.7l76.7-76.7V118.3L591.5,4H4v836.1h310.1V560.3h72.8L395.7,569.1z
		 M306.1,552.3v279.8H12V12h576.3l109.5,109.5v265.3l-79.9,79.9l79.9,79.9v285.4H403.7V565.9l-13.6-13.6H306.1z"/>
</g>
<g>
	<path class="st0" d="M1164.6,127.1l-13.6,13.6v103.9l34.4,38.4l40.8-38.2V140.7l-13.6-13.6H1164.6z M1218.2,241.2l-32.4,30.3
		l-31.8-35.6h5v-92l8.8-8.8h41.4l8.8,8.8V241.2z"/>
	<path class="st0" d="M1123.3,705.8l43.8-50.7l-99.2-111.2l-6.4,11.3V681l24.8,24.8H1123.3z M1069.5,557.8l86.8,97.5l-36.7,42.5
		h-30.1l-20-20V557.8z"/>
	<path class="st0" d="M1321,840.1h267.8V722.7l-138.5-155.1l17-19.5H1573v-177h-171.5l-62.4,72.3l-46.5-52l99.5-44.2l80.1-80.1V95.9
		L1380.4,4H974.3L860,118.3v204.4l76.9,86.3L884,429.8L781.7,543.5v182.3L896,840.1h316.7l53.6-61.4L1321,840.1z M1209.2,832.1
		H899.3L789.8,722.7V546.8l99.1-110l61.8-24.2l-82.6-92.6V121.5L977.6,12h399.5l87.3,87.1v164.4l-76.7,76.7l-108.2,48.1l59.8,67
		l65.9-76.3h159.7v161.1h-101.4l-24.1,27.6l141.2,158v106.4h-256.1l-58.4-65.5L1209.2,832.1z"/>
</g>
<g>
	<path class="st0" d="M1950,183v478h84l13.6-13.6V196.6L2034,183H1950z M2039.5,644.2l-8.8,8.8H1958V191h72.7l8.8,8.8V644.2z"/>
	<path class="st0" d="M2349.6,118.3L2235.3,4h-587.5v836.1h587.5l114.3-114.3V118.3z M2341.7,722.6l-1.2,1.2l-108.4,108.4h-576.4V12
		h576.3l109.6,109.5V722.6z"/>
</g>
</svg>
