<?xml version="1.0" encoding="utf-8"?>
<!-- Generator: Adobe Illustrator 22.0.0, SVG Export Plug-In . SVG Version: 6.00 Build 0)  -->
<svg version="1.1" id="Layer_1" xmlns="http://www.w3.org/2000/svg" xmlns:xlink="http://www.w3.org/1999/xlink" x="0px" y="0px"
	 viewBox="0 0 2353.7 844.1" style="enable-background:new 0 0 2353.7 844.1;" xml:space="preserve">
<style type="text/css">
	.st0{fill:#9B1ACD;}
</style>
<g>
	<g>
		<path class="st0" d="M709.8,844.1H391.7V570.8l-6.5-6.5h-67.1v279.8H0V0h593.2l116.6,116.6v275.2l-75,75l75,75V844.1z
			 M407.7,828.1h286.1V548.4l-81.6-81.6l81.6-81.6v-262L586.6,16H16v812.1h286.1V548.3h89.7l15.9,15.9V828.1z M391.8,385.3h-89.7
			V179h89.7l15.9,15.9v174.5L391.8,385.3z M318.1,369.3h67l6.5-6.5V201.6l-6.5-6.5h-67.1V369.3z"/>
	</g>
	<g>
		<path class="st0" d="M1592.7,844.1h-273.5l-52.9-59.4l-51.8,59.4H894.3L777.7,727.5V542l104-115.6l48.4-19l-74.1-83.2V116.6
			L972.6,0h409.5l94.2,94.2v174.5l-81.8,81.8l-95.2,42.3l39.8,44.5l60.6-70.2H1577v185h-107.9l-13.5,15.5l137.2,153.6V844.1z
			 M1326.5,828.1h250.3V727.2l-142.5-159.5l27.6-31.6h99.2V383h-153.9l-67.7,78.4l-66.5-74.5l112.5-50l75-75V100.8L1375.5,16H979.3
			L872.1,123.2v195.1l85.4,95.8l-66.3,26l-97.4,108.2v172.7L901,828.1h306.4l58.9-67.6L1326.5,828.1z M1125.1,709.8h-40.5
			l-27.1-27.1V554.2l9.7-17.1l105.2,118L1125.1,709.8z M1091.2,693.8h26.6l33.2-38.5l-77.5-87v107.8L1091.2,693.8z M1185.1,288.7
			l-38.1-42.6V139l15.9-15.9h51.4l15.9,15.9v107.5L1185.1,288.7z M1163,239.9l23.1,25.9l28.1-26.3v-93.9l-6.5-6.5h-38.1l-6.5,6.5
			V239.9z"/>
	</g>
	<g>
		<path class="st0" d="M2237,844.1h-593.2V0H2237l116.6,116.6v610.9L2237,844.1z M1659.9,828.1h570.6l107.2-107.2V123.2L2230.4,16
			h-570.6V828.1z M2035.6,665H1946V179h89.7l15.9,15.9v454.2L2035.6,665z M1962,649h67l6.5-6.5v-441l-6.5-6.5h-67V649z"/>
	</g>
</g>
</svg>
