<svg id="Layer_1" data-name="Layer 1" xmlns="http://www.w3.org/2000/svg" viewBox="0 0 454.04 638.28"><defs><style>.cls-1,.cls-2{fill:none;stroke:#231f20;stroke-miterlimit:10;}.cls-1{stroke-width:0.25px;}.cls-3{fill:#010101;}.cls-4{fill:#231f20;}</style></defs><title>Diagram</title><rect class="cls-1" x="0.24" y="0.24" width="453.54" height="637.8"/><line class="cls-1" x1="0.24" y1="624.17" x2="453.78" y2="624.17"/><line class="cls-1" x1="0.24" y1="610.31" x2="453.78" y2="610.31"/><line class="cls-1" x1="0.24" y1="596.44" x2="453.78" y2="596.44"/><line class="cls-1" x1="0.24" y1="582.58" x2="453.78" y2="582.58"/><line class="cls-1" x1="0.24" y1="568.71" x2="453.78" y2="568.71"/><line class="cls-1" x1="0.24" y1="554.85" x2="453.78" y2="554.85"/><line class="cls-1" x1="0.24" y1="540.98" x2="453.78" y2="540.98"/><line class="cls-1" x1="0.24" y1="527.12" x2="453.78" y2="527.12"/><line class="cls-1" x1="0.24" y1="513.25" x2="453.78" y2="513.25"/><line class="cls-1" x1="0.24" y1="499.39" x2="453.78" y2="499.39"/><line class="cls-1" x1="0.24" y1="485.52" x2="453.78" y2="485.52"/><line class="cls-1" x1="0.24" y1="471.66" x2="453.78" y2="471.66"/><line class="cls-1" x1="0.24" y1="457.79" x2="453.78" y2="457.79"/><line class="cls-1" x1="0.24" y1="443.93" x2="453.78" y2="443.93"/><line class="cls-1" x1="0.24" y1="430.06" x2="453.78" y2="430.06"/><line class="cls-1" x1="0.24" y1="416.2" x2="453.78" y2="416.2"/><line class="cls-1" x1="0.24" y1="402.33" x2="453.78" y2="402.33"/><line class="cls-1" x1="0.24" y1="388.47" x2="453.78" y2="388.47"/><line class="cls-1" x1="0.24" y1="374.6" x2="453.78" y2="374.6"/><line class="cls-1" x1="0.24" y1="360.74" x2="453.78" y2="360.74"/><line class="cls-1" x1="0.24" y1="346.87" x2="453.78" y2="346.87"/><line class="cls-2" x1="0.24" y1="333.01" x2="453.78" y2="333.01"/><line class="cls-1" x1="0.24" y1="319.14" x2="453.78" y2="319.14"/><line class="cls-1" x1="0.24" y1="305.27" x2="453.78" y2="305.27"/><line class="cls-1" x1="0.24" y1="291.41" x2="453.78" y2="291.41"/><line class="cls-1" x1="0.24" y1="277.54" x2="453.78" y2="277.54"/><line class="cls-1" x1="0.24" y1="263.68" x2="453.78" y2="263.68"/><line class="cls-1" x1="0.24" y1="249.81" x2="453.78" y2="249.81"/><line class="cls-1" x1="0.24" y1="235.95" x2="453.78" y2="235.95"/><line class="cls-1" x1="0.24" y1="222.08" x2="453.78" y2="222.08"/><line class="cls-1" x1="0.24" y1="208.22" x2="453.78" y2="208.22"/><line class="cls-1" x1="0.24" y1="194.35" x2="453.78" y2="194.35"/><line class="cls-1" x1="0.24" y1="180.49" x2="453.78" y2="180.49"/><line class="cls-1" x1="0.24" y1="166.62" x2="453.78" y2="166.62"/><line class="cls-1" x1="0.24" y1="152.76" x2="453.78" y2="152.76"/><line class="cls-1" x1="0.24" y1="138.89" x2="453.78" y2="138.89"/><line class="cls-1" x1="0.24" y1="125.03" x2="453.78" y2="125.03"/><line class="cls-1" x1="0.24" y1="111.16" x2="453.78" y2="111.16"/><line class="cls-1" x1="0.24" y1="97.3" x2="453.78" y2="97.3"/><line class="cls-1" x1="0.24" y1="83.43" x2="453.78" y2="83.43"/><line class="cls-1" x1="0.24" y1="69.57" x2="453.78" y2="69.57"/><line class="cls-1" x1="0.24" y1="55.7" x2="453.78" y2="55.7"/><line class="cls-1" x1="0.24" y1="41.84" x2="453.78" y2="41.84"/><line class="cls-1" x1="0.24" y1="27.97" x2="453.78" y2="27.97"/><line class="cls-1" x1="0.24" y1="14.11" x2="453.78" y2="14.11"/><line class="cls-1" x1="439.61" y1="0.24" x2="439.61" y2="638.04"/><line class="cls-1" x1="425.43" y1="0.24" x2="425.43" y2="638.04"/><line class="cls-1" x1="411.26" y1="0.24" x2="411.26" y2="638.04"/><line class="cls-1" x1="397.09" y1="0.24" x2="397.09" y2="638.04"/><line class="cls-1" x1="382.91" y1="0.24" x2="382.91" y2="638.04"/><line class="cls-1" x1="368.74" y1="0.24" x2="368.74" y2="638.04"/><line class="cls-1" x1="354.57" y1="0.24" x2="354.57" y2="638.04"/><line class="cls-1" x1="340.39" y1="0.24" x2="340.39" y2="638.04"/><line class="cls-1" x1="326.22" y1="0.24" x2="326.22" y2="638.04"/><line class="cls-1" x1="312.05" y1="0.24" x2="312.05" y2="638.04"/><line class="cls-1" x1="297.87" y1="0.24" x2="297.87" y2="638.04"/><line class="cls-1" x1="283.7" y1="0.24" x2="283.7" y2="638.04"/><line class="cls-1" x1="269.53" y1="0.24" x2="269.53" y2="638.04"/><line class="cls-1" x1="255.36" y1="0.24" x2="255.36" y2="638.04"/><line class="cls-1" x1="241.18" y1="0.24" x2="241.18" y2="638.04"/><line class="cls-2" x1="227.01" y1="0.24" x2="227.01" y2="638.04"/><line class="cls-1" x1="212.84" y1="0.24" x2="212.84" y2="638.04"/><line class="cls-1" x1="198.66" y1="0.24" x2="198.66" y2="638.04"/><line class="cls-1" x1="184.49" y1="0.24" x2="184.49" y2="638.04"/><line class="cls-1" x1="170.32" y1="0.24" x2="170.32" y2="638.04"/><line class="cls-1" x1="156.14" y1="0.24" x2="156.14" y2="638.04"/><line class="cls-1" x1="141.97" y1="0.24" x2="141.97" y2="638.04"/><line class="cls-1" x1="127.8" y1="0.24" x2="127.8" y2="638.04"/><line class="cls-1" x1="113.62" y1="0.24" x2="113.62" y2="638.04"/><line class="cls-1" x1="99.45" y1="0.24" x2="99.45" y2="638.04"/><line class="cls-1" x1="85.28" y1="0.24" x2="85.28" y2="638.04"/><line class="cls-1" x1="71.1" y1="0.24" x2="71.1" y2="638.04"/><line class="cls-1" x1="56.93" y1="0.24" x2="56.93" y2="638.04"/><line class="cls-1" x1="42.76" y1="0.24" x2="42.76" y2="638.04"/><line class="cls-1" x1="28.58" y1="0.24" x2="28.58" y2="638.04"/><line class="cls-1" x1="14.41" y1="0.24" x2="14.41" y2="638.04"/><path class="cls-3" d="M38.34,28.7a4.16,4.16,0,0,1,2.23,2.18,11.91,11.91,0,0,1,1,5.5,11.84,11.84,0,0,1-1,5.49,4.18,4.18,0,0,1-2.23,2.19,10,10,0,0,1-3,.4H30.85V28.29h4.47A10,10,0,0,1,38.34,28.7Zm-.9,13.14A3.23,3.23,0,0,0,38.61,40a14,14,0,0,0,.37-3.6,14.1,14.1,0,0,0-.37-3.61,3.23,3.23,0,0,0-1.17-1.86,3.76,3.76,0,0,0-2.18-.56H33.35V42.41h1.91A3.69,3.69,0,0,0,37.44,41.84Z" transform="translate(-22.25 -20.06)"/><path class="cls-3" d="M48.36,30.35v5.13h6v2.08h-6v4.85h7.29v2.05H45.86V28.29h9.79v2.06Z" transform="translate(-22.25 -20.06)"/><path class="cls-3" d="M66.34,35a19.41,19.41,0,0,1,2.55,1.18,5.71,5.71,0,0,1,1.75,1.57,3.84,3.84,0,0,1,.71,2.36,4.24,4.24,0,0,1-.76,2.64,4.48,4.48,0,0,1-2.09,1.49,9,9,0,0,1-3.07.48,7.76,7.76,0,0,1-3.67-.78,5.33,5.33,0,0,1-2.27-2.33l2.18-1.23A3.78,3.78,0,0,0,63.11,42a4.46,4.46,0,0,0,2.32.57,4.37,4.37,0,0,0,2.43-.6,2,2,0,0,0,.48-3,3.77,3.77,0,0,0-1.21-1,11.29,11.29,0,0,0-1.93-.82L65,37.12a18.31,18.31,0,0,1-2.35-1,5.37,5.37,0,0,1-1.7-1.49,3.77,3.77,0,0,1-.72-2.34A3.49,3.49,0,0,1,61,29.93a4.52,4.52,0,0,1,2-1.34,8.06,8.06,0,0,1,2.71-.44,7,7,0,0,1,3.37.79A4.45,4.45,0,0,1,71,31.23l-2,1.2a3.28,3.28,0,0,0-1.32-1.56,3.91,3.91,0,0,0-2.08-.54,3.74,3.74,0,0,0-2,.48,1.58,1.58,0,0,0-.76,1.43,1.75,1.75,0,0,0,.71,1.41,8.63,8.63,0,0,0,2.29,1.18Z" transform="translate(-22.25 -20.06)"/><path class="cls-3" d="M81.75,30.35V42.41h3.4v2.05H75.87V42.41h3.38V30.35H75.87V28.29h9.28v2.06Z" transform="translate(-22.25 -20.06)"/><path class="cls-3" d="M101.28,42A5.7,5.7,0,0,1,99.16,44a6.71,6.71,0,0,1-3.32.76,5.64,5.64,0,0,1-4.45-1.91c-1.14-1.28-1.71-3.4-1.71-6.38a11.86,11.86,0,0,1,.84-4.85,5.5,5.5,0,0,1,2.22-2.63,6.31,6.31,0,0,1,3.16-.79,6.07,6.07,0,0,1,3.24.76,6,6,0,0,1,2.07,2.32L99,32.57A4.24,4.24,0,0,0,97.84,31a2.81,2.81,0,0,0-2-.67,3.33,3.33,0,0,0-1.9.53,3.44,3.44,0,0,0-1.26,1.88,12.05,12.05,0,0,0-.45,3.68,12.49,12.49,0,0,0,.43,3.69A3.46,3.46,0,0,0,93.91,42a3.35,3.35,0,0,0,1.93.54,4.56,4.56,0,0,0,1.81-.31,2.75,2.75,0,0,0,1.15-.86V37.6H95.54V35.55h5.74Z" transform="translate(-22.25 -20.06)"/><path class="cls-3" d="M115.64,28.29V44.46h-2.33L108,32.75V44.46h-2.49V28.29h2.31l5.29,11.81V28.29Z" transform="translate(-22.25 -20.06)"/><path class="cls-3" d="M36.27,58.09a17.18,17.18,0,0,1,2.55,1.18,5.6,5.6,0,0,1,1.75,1.57,3.82,3.82,0,0,1,.72,2.35,4.26,4.26,0,0,1-.77,2.65,4.56,4.56,0,0,1-2.09,1.49,8.94,8.94,0,0,1-3.06.48A7.8,7.8,0,0,1,31.69,67a5.41,5.41,0,0,1-2.27-2.34l2.19-1.22a3.58,3.58,0,0,0,1.44,1.59,5.05,5.05,0,0,0,4.74,0,1.92,1.92,0,0,0,.91-1.71,1.94,1.94,0,0,0-.43-1.26,4,4,0,0,0-1.2-1,12.72,12.72,0,0,0-1.94-.82l-.23-.07a18.31,18.31,0,0,1-2.35-1.05,5.35,5.35,0,0,1-1.7-1.49,3.8,3.8,0,0,1-.71-2.33A3.54,3.54,0,0,1,30.88,53a4.42,4.42,0,0,1,2-1.34,8,8,0,0,1,2.7-.44,6.83,6.83,0,0,1,3.37.79,4.39,4.39,0,0,1,2,2.28l-2,1.2A3.37,3.37,0,0,0,37.63,54a3.8,3.8,0,0,0-2.08-.55,3.65,3.65,0,0,0-2,.49,1.58,1.58,0,0,0-.76,1.43,1.76,1.76,0,0,0,.72,1.41,8.67,8.67,0,0,0,2.28,1.18Z" transform="translate(-22.25 -20.06)"/><path class="cls-3" d="M48.59,62v5.52H46.12V51.39h5a9.08,9.08,0,0,1,2.43.3,3.46,3.46,0,0,1,1.88,1.43,5.88,5.88,0,0,1,.8,3.37,6.6,6.6,0,0,1-.8,3.57,3.69,3.69,0,0,1-1.89,1.61,7.73,7.73,0,0,1-2.42.37Zm0-2.06h2.69a3,3,0,0,0,1.24-.23,1.79,1.79,0,0,0,.84-1,5.51,5.51,0,0,0,.34-2.17,4.81,4.81,0,0,0-.33-2,1.77,1.77,0,0,0-.83-.92,3,3,0,0,0-1.26-.23H48.59Z" transform="translate(-22.25 -20.06)"/><path class="cls-3" d="M66.25,53.45H64.72L62,67.56H59.45l3.27-16.17h5.53l3.29,16.17H69ZM69.32,62v2.05H61.67V62Z" transform="translate(-22.25 -20.06)"/><path class="cls-3" d="M84.19,67.06a6.47,6.47,0,0,1-3.22.75A6.15,6.15,0,0,1,77.7,67a5.12,5.12,0,0,1-2-2.64A13.62,13.62,0,0,1,75,59.52a13.51,13.51,0,0,1,.72-4.83,5.11,5.11,0,0,1,2-2.64,6.19,6.19,0,0,1,3.25-.8,6.06,6.06,0,0,1,3.23.77,6.38,6.38,0,0,1,2.11,2.3l-2.21,1.41a4.49,4.49,0,0,0-.75-1.21,3.12,3.12,0,0,0-1-.81,3.36,3.36,0,0,0-3.24.28A3.55,3.55,0,0,0,78,55.88a13,13,0,0,0-.4,3.64,13.68,13.68,0,0,0,.38,3.64,3.44,3.44,0,0,0,1.13,1.91,3.07,3.07,0,0,0,1.91.57,2.83,2.83,0,0,0,1.84-.57A4.39,4.39,0,0,0,84,63.63l.15-.28,2.29,1.34A5.81,5.81,0,0,1,84.19,67.06Z" transform="translate(-22.25 -20.06)"/><path class="cls-3" d="M93.46,53.45v5.12h6v2.08h-6V65.5h7.29v2.06H91V51.39h9.78v2.06Z" transform="translate(-22.25 -20.06)"/><path class="cls-3" d="M378.36,332.71l-.74.31-1.81-4h.95Zm-2.55,4,1.84-4h.88l-1.77,4Zm2.71-3.44h-.7v-.73h.7Zm.7-.73v.73h-.77v-.73Zm-.73.2h.9l1.83,4h-1Zm2.73-3.73-1.81,4-.74-.31,1.6-3.73Z" transform="translate(-22.25 -20.06)"/><path class="cls-3" d="M387.29,333v.77H384V333Z" transform="translate(-22.25 -20.06)"/><path class="cls-3" d="M393.26,329.71h-.83l-1.45,7h-.86l1.63-7.7h2.19l1.64,7.7h-.87Zm1.36,4.34v.73h-3.54v-.73Z" transform="translate(-22.25 -20.06)"/><path class="cls-3" d="M399.83,332.71l-.74.31-1.81-4h1Zm-2.55,4,1.84-4H400l-1.76,4Zm2.71-3.44h-.7v-.73h.7Zm.71-.73v.73h-.78v-.73Zm-.73.2h.9l1.83,4h-1ZM402.7,329l-1.82,4-.73-.31,1.59-3.73Z" transform="translate(-22.25 -20.06)"/><path class="cls-3" d="M407.58,329.71V336h1.74v.72H405V336h1.74v-6.25H405V329h4.33v.73Z" transform="translate(-22.25 -20.06)"/><path class="cls-3" d="M414.68,332.29a10,10,0,0,1,1.27.63,3,3,0,0,1,.79.74,1.7,1.7,0,0,1,.29,1,2,2,0,0,1-.33,1.18,2.1,2.1,0,0,1-.95.71,4,4,0,0,1-1.42.23,3.68,3.68,0,0,1-1.69-.35,2.38,2.38,0,0,1-1-1l.77-.43a1.82,1.82,0,0,0,.75.78,2.36,2.36,0,0,0,1.21.28,2.2,2.2,0,0,0,1.34-.35,1.12,1.12,0,0,0,.49-1,1.11,1.11,0,0,0-.23-.67,2.59,2.59,0,0,0-.65-.54,8.28,8.28,0,0,0-1.06-.5l-.14,0a7.73,7.73,0,0,1-1.11-.53,2.58,2.58,0,0,1-.75-.68,1.66,1.66,0,0,1-.29-1,1.56,1.56,0,0,1,.32-1,1.91,1.91,0,0,1,.87-.62,3.45,3.45,0,0,1,1.25-.2,3.1,3.1,0,0,1,1.54.35,2.06,2.06,0,0,1,.92,1l-.69.43a1.69,1.69,0,0,0-.67-.77,2.4,2.4,0,0,0-2.23,0,.91.91,0,0,0-.41.8,1,1,0,0,0,.37.78,4.28,4.28,0,0,0,1.2.65Z" transform="translate(-22.25 -20.06)"/><path class="cls-3" d="M429.76,333v.77h-3.27V333Z" transform="translate(-22.25 -20.06)"/><path class="cls-3" d="M439,329h.86l.57,6.4.06,1.3h-.71Zm1.45,6.35,1.17-5.7h.44l-.13,1.31-1.22,5.74h-.34Zm1.52-4.39-.16-1.31h.45l1.16,5.69.1,1.36h-.35Zm1.46,4.44.59-6.4h.86l-.79,7.7h-.7Z" transform="translate(-22.25 -20.06)"/><path class="cls-3" d="M449.55,329.71V336h1.74v.72H447V336h1.73v-6.25H447V329h4.32v.73Z" transform="translate(-22.25 -20.06)"/><path class="cls-3" d="M457.58,329.17a2,2,0,0,1,1,1,8,8,0,0,1,0,5.24,2,2,0,0,1-1,1,4.47,4.47,0,0,1-1.4.19h-1.93V329h1.93A4.79,4.79,0,0,1,457.58,329.17Zm-.21,6.49a1.76,1.76,0,0,0,.61-1,6.65,6.65,0,0,0,.2-1.87A6.57,6.57,0,0,0,458,331a1.79,1.79,0,0,0-.61-1,1.84,1.84,0,0,0-1.1-.29h-1.18V336h1.18A1.84,1.84,0,0,0,457.37,335.66Z" transform="translate(-22.25 -20.06)"/><path class="cls-3" d="M466,329.71h-2.16v7H463v-7h-2.16V329H466Z" transform="translate(-22.25 -20.06)"/><path class="cls-3" d="M472.87,329v7.7H472V333h-2.81v3.64h-.86V329h.86v3.33H472V329Z" transform="translate(-22.25 -20.06)"/><path class="cls-3" d="M256.45,25.54v.86h-4v-.86Zm-.09.49-.75-.49,4.58-2.36v.92Zm3.83,2.72-4.58-2.35.75-.49,3.83,1.93Z" transform="translate(-22.25 -20.06)"/><path class="cls-3" d="M256.22,34.24h-.77V31h.77Z" transform="translate(-22.25 -20.06)"/><path class="cls-3" d="M259.47,39.72v-.83l-7-1.45v-.86l7.7,1.63V40.4L252.49,42v-.87Zm-4.35,1.36h-.72V37.54h.72Z" transform="translate(-22.25 -20.06)"/><path class="cls-3" d="M252.49,43.26l4,1.84V46l-4-1.77Zm4,2.69v.89l-4,1.83v-1Zm-.52,0v-.7h.72V46Zm.72.7h-.72V45.9h.72Zm-.2-.86-.3-.74,4-1.81v1Zm3.73,2.86-4-1.81.3-.74,3.73,1.6Z" transform="translate(-22.25 -20.06)"/><path class="cls-3" d="M259.47,53.06h-6.25V54.8h-.73V50.48h.73v1.73h6.25V50.48h.72V54.8h-.72Z" transform="translate(-22.25 -20.06)"/><path class="cls-3" d="M256.88,59.67a9.36,9.36,0,0,1-.63,1.27,2.65,2.65,0,0,1-.73.79,1.75,1.75,0,0,1-1,.3,2,2,0,0,1-1.19-.34,2.05,2.05,0,0,1-.7-.94,3.82,3.82,0,0,1-.24-1.43,3.67,3.67,0,0,1,.35-1.68,2.53,2.53,0,0,1,1.05-1l.43.77a2,2,0,0,0-.79.75,2.49,2.49,0,0,0-.28,1.21,2.3,2.3,0,0,0,.35,1.35,1.14,1.14,0,0,0,1,.48,1,1,0,0,0,.67-.23,2.18,2.18,0,0,0,.54-.64,9.14,9.14,0,0,0,.51-1.07l0-.13a8.32,8.32,0,0,1,.53-1.11,2.26,2.26,0,0,1,.69-.75,1.62,1.62,0,0,1,1-.3,1.59,1.59,0,0,1,1,.33,1.88,1.88,0,0,1,.62.87,3.68,3.68,0,0,1,.2,1.25,3.15,3.15,0,0,1-.35,1.53,2.07,2.07,0,0,1-1,.93l-.43-.7a1.68,1.68,0,0,0,.77-.67,2.12,2.12,0,0,0,.26-1.09,2.08,2.08,0,0,0-.27-1.13.91.91,0,0,0-.81-.42,1,1,0,0,0-.78.38,4.63,4.63,0,0,0-.65,1.19Z" transform="translate(-22.25 -20.06)"/><path class="cls-3" d="M256.22,74.26h-.77V71h.77Z" transform="translate(-22.25 -20.06)"/><path class="cls-3" d="M260.19,83.06v.86l-6.4.57-1.3.06v-.71Zm-6.34,1.45,5.69,1.17v.44l-1.3-.13-5.75-1.22v-.34ZM258.24,86l1.3-.16v.45l-5.68,1.16-1.37.1v-.35Zm-4.45,1.46,6.4.59v.86l-7.7-.79v-.7Z" transform="translate(-22.25 -20.06)"/><path class="cls-3" d="M259.47,91.42h-2.83v3h-.73v-3h-2.69V95h-.73V90.57h7.7V95h-.72Z" transform="translate(-22.25 -20.06)"/><path class="cls-3" d="M259.47,99.75h-6.25v1.74h-.73V97.17h.73V98.9h6.25V97.17h.72v4.32h-.72Z" transform="translate(-22.25 -20.06)"/><path class="cls-3" d="M253.56,108.65a2.94,2.94,0,0,1-.85-1,3.18,3.18,0,0,1-.34-1.53,2.48,2.48,0,0,1,.94-2,4.84,4.84,0,0,1,3-.75,6.12,6.12,0,0,1,2.28.36,2.52,2.52,0,0,1,1.27,1,2.74,2.74,0,0,1,.39,1.47,2.65,2.65,0,0,1-.34,1.44,2.85,2.85,0,0,1-1,.91l-.47-.77a1.91,1.91,0,0,0,.77-.59,1.54,1.54,0,0,0,.3-1,1.7,1.7,0,0,0-.31-1,1.94,1.94,0,0,0-1-.68,6,6,0,0,0-1.86-.24,6.24,6.24,0,0,0-1.85.23,1.89,1.89,0,0,0-1,.65,1.68,1.68,0,0,0-.32,1,2.37,2.37,0,0,0,.18,1,1.61,1.61,0,0,0,.52.63H256v-1.72h.73v2.57Z" transform="translate(-22.25 -20.06)"/><path class="cls-3" d="M260.19,114.93h-7.7v-.85h3.64v-2.81h-3.64v-.86h7.7v.86h-3.33v2.81h3.33Z" transform="translate(-22.25 -20.06)"/><path class="cls-3" d="M259.47,121.92v-2.16h-7v-.85h7v-2.16h.72v5.17Z" transform="translate(-22.25 -20.06)"/><path class="cls-4" d="M169.18,48.28l-5-28.22h10.29l2.75,21.2H178l2.71-21.2h10l-5,28.22Z" transform="translate(-22.25 -20.06)"/><path class="cls-4" d="M443.92,103.72l7.92-28.18h16.53l7.92,28.18H466.23l-5.59-21.44h-1L454,103.72Zm8.19-5.52V92.1h16v6.1Z" transform="translate(-22.25 -20.06)"/><path class="cls-4" d="M22.25,131.47V103.26h18l3.66,3.66v9.26l-2.6,2.6,2.6,2.63v10.06h-9v-9.34l-.61-.61h-3v10Zm9-15.44h3l.61-.61v-6.17l-.5-.5H31.25Z" transform="translate(-22.25 -20.06)"/><path class="cls-4" d="M64.77,131.47V103.28h9.06v28.19Z" transform="translate(-22.25 -20.06)"/><path class="cls-4" d="M263.19,340.19V309.65H280V313H267.31v9.58H278.7V326H267.31v10.78h13.13v3.38Z" transform="translate(-22.25 -20.06)"/><path class="cls-4" d="M22.26,339.2V308.66h4.12v27.2h8.88v3.34Z" transform="translate(-22.25 -20.06)"/><path class="cls-4" d="M419.09,256.26V228h19.57l3.81,3.82v6.82l-3.16,3.17,3.16,3.17v7.43l-3.81,3.82Zm5.68-16.48h10l1.94-1.91v-4.23l-1.56-1.6H424.77Zm0,12.47h10.42l1.56-1.6v-5l-1.94-2h-10Z" transform="translate(-22.25 -20.06)"/><path class="cls-4" d="M263.18,186.93,270,158.71h14l6.79,28.22h-8.47l-4.76-22.65H276.3l-4.84,22.65Zm6.87-6v-5.46h13.77v5.46Z" transform="translate(-22.25 -20.06)"/><path class="cls-4" d="M323.44,394.92l-3.54-3.55V366.69h3.81v23.38l1.56,1.57h8.89l1.56-1.57V366.69h3.82v24.68L336,394.92Z" transform="translate(-22.25 -20.06)"/><path class="cls-4" d="M85.69,450.38V424H78.93v-1.84H94.58V424H87.9v26.41Z" transform="translate(-22.25 -20.06)"/><path class="cls-4" d="M243.59,505.83l-3.32-3.32v-24.9h1.8V501.9l2.36,2.4h8.39l2.4-2.4V477.61H257v24.9l-3.28,3.32Z" transform="translate(-22.25 -20.06)"/><path class="cls-4" d="M178.15,605.22V574.68H191.4v1h-12v13.13h11v1h-11v14.36h12.25v1Z" transform="translate(-22.25 -20.06)"/><path class="cls-4" d="M459.46,658.34l-3.81-3.8v-2.71h.54v2.52l3.54,3.54h12.45l3.54-3.54v-6.67l-3.54-3.5H460l-3.77-3.81V634l3.77-3.81h12.11l3.8,3.81v2.32h-.53v-2.13l-3.54-3.54H460.22l-3.5,3.54v6.06l3.46,3.46h12.23l3.84,3.85v7l-3.8,3.8Z" transform="translate(-22.25 -20.06)"/><path class="cls-4" d="M121.2,394.89V366.68H132v2.44h-7.67v10.41h7.06v2.52h-7.06v12.84Z" transform="translate(-22.25 -20.06)"/><path class="cls-4" d="M456.47,505.82v-28.2h16l3.81,3.81v7.81l-3.58,3.55,3.58,3.58v9.45h-1.79v-9l-3.24-3.24h-13v12.27ZM458.26,492h13l3.2-3.2v-6.71l-2.93-2.9h-13.3Z" transform="translate(-22.25 -20.06)"/></svg>